<?xml version="1.0" encoding="UTF-8"?>
<svg width="37px" height="114px" viewBox="0 0 37 114" version="1.1" xmlns="http://www.w3.org/2000/svg" xmlns:xlink="http://www.w3.org/1999/xlink">
    <!-- Generator: Sketch 64 (93537) - https://sketch.com -->
    <title>Group</title>
    <desc>Created with Sketch.</desc>
    <g id="Page-1" stroke="none" stroke-width="1" fill="none" fill-rule="evenodd">
        <g id="Group" transform="translate(0.270542, -0.362305)">
            <path d="M-33.3,68.0940182 C-32.34,68.0940182 -31.488,67.9480182 -30.744,67.6560182 C-30,67.3640182 -29.37,66.9640182 -28.854,66.4560182 C-28.338,65.9480182 -27.946,65.3520182 -27.678,64.6680182 C-27.41,63.9840182 -27.276,63.2500182 -27.276,62.4660182 C-27.276,61.7460182 -27.39,61.1340182 -27.618,60.6300182 C-27.846,60.1260182 -28.148,59.7000182 -28.524,59.3520182 C-28.9,59.0040182 -29.328,58.7160182 -29.808,58.4880182 C-30.288,58.2600182 -30.778,58.0600182 -31.278,57.8880182 C-31.778,57.7160182 -32.268,57.5540182 -32.748,57.4020182 C-33.228,57.2500182 -33.656,57.0780182 -34.032,56.8860182 C-34.408,56.6940182 -34.71,56.4620182 -34.938,56.1900182 C-35.166,55.9180182 -35.28,55.5780182 -35.28,55.1700182 C-35.28,54.8500182 -35.224,54.5560182 -35.112,54.2880182 C-35,54.0200182 -34.83,53.7900182 -34.602,53.5980182 C-34.374,53.4060182 -34.094,53.2560182 -33.762,53.1480182 C-33.43,53.0400182 -33.04,52.9860182 -32.592,52.9860182 C-32.096,52.9860182 -31.666,53.0480182 -31.302,53.1720182 C-30.938,53.2960182 -30.62,53.4340182 -30.348,53.5860182 C-30.076,53.7380182 -29.84,53.8760182 -29.64,54.0000182 C-29.44,54.1240182 -29.26,54.1860182 -29.1,54.1860182 C-28.94,54.1860182 -28.802,54.1500182 -28.686,54.0780182 C-28.57,54.0060182 -28.468,53.8820182 -28.38,53.7060182 L-28.38,53.7060182 L-27.588,52.1820182 C-28.196,51.6060182 -28.932,51.1580182 -29.796,50.8380182 C-30.66,50.5180182 -31.604,50.3580182 -32.628,50.3580182 C-33.532,50.3580182 -34.336,50.4980182 -35.04,50.7780182 C-35.744,51.0580182 -36.338,51.4300182 -36.822,51.8940182 C-37.306,52.3580182 -37.674,52.8900182 -37.926,53.4900182 C-38.178,54.0900182 -38.304,54.7060182 -38.304,55.3380182 C-38.304,56.1300182 -38.19,56.7960182 -37.962,57.3360182 C-37.734,57.8760182 -37.432,58.3260182 -37.056,58.6860182 C-36.68,59.0460182 -36.252,59.3380182 -35.772,59.5620182 C-35.292,59.7860182 -34.804,59.9780182 -34.308,60.1380182 C-33.812,60.2980182 -33.324,60.4460182 -32.844,60.5820182 C-32.364,60.7180182 -31.936,60.8840182 -31.56,61.0800182 C-31.184,61.2760182 -30.882,61.5180182 -30.654,61.8060182 C-30.426,62.0940182 -30.312,62.4660182 -30.312,62.9220182 C-30.312,63.7380182 -30.564,64.3640182 -31.068,64.8000182 C-31.572,65.2360182 -32.284,65.4540182 -33.204,65.4540182 C-33.804,65.4540182 -34.318,65.3720182 -34.746,65.2080182 C-35.174,65.0440182 -35.546,64.8620182 -35.862,64.6620182 C-36.178,64.4620182 -36.452,64.2800182 -36.684,64.1160182 C-36.916,63.9520182 -37.132,63.8700182 -37.332,63.8700182 C-37.484,63.8700182 -37.622,63.9080182 -37.746,63.9840182 C-37.87,64.0600182 -37.976,64.1540182 -38.064,64.2660182 L-38.064,64.2660182 L-39,65.8140182 C-38.664,66.1580182 -38.282,66.4700182 -37.854,66.7500182 C-37.426,67.0300182 -36.966,67.2700182 -36.474,67.4700182 C-35.982,67.6700182 -35.468,67.8240182 -34.932,67.9320182 C-34.396,68.0400182 -33.852,68.0940182 -33.3,68.0940182 Z M-20.9278,68.0940182 C-20.3278,68.0940182 -19.7478,68.0020182 -19.1878,67.8180182 C-18.6278,67.6340182 -18.1318,67.3620182 -17.6998,67.0020182 L-17.6998,67.0020182 L-18.5878,65.5620182 C-18.6518,65.4740182 -18.7118,65.4080182 -18.7678,65.3640182 C-18.8238,65.3200182 -18.8958,65.2980182 -18.9838,65.2980182 C-19.0558,65.2980182 -19.1278,65.3200182 -19.1998,65.3640182 C-19.2718,65.4080182 -19.3538,65.4540182 -19.4458,65.5020182 C-19.5378,65.5500182 -19.6458,65.5960182 -19.7698,65.6400182 C-19.8938,65.6840182 -20.0478,65.7060182 -20.2318,65.7060182 C-20.5518,65.7060182 -20.8078,65.5980182 -20.9998,65.3820182 C-21.1918,65.1660182 -21.2878,64.8660182 -21.2878,64.4820182 L-21.2878,64.4820182 L-21.2878,57.8100182 L-18.0478,57.8100182 L-18.0478,55.6980182 L-21.2878,55.6980182 L-21.2878,51.8220182 L-22.8238,51.8220182 C-22.9998,51.8220182 -23.1458,51.8660182 -23.2618,51.9540182 C-23.3778,52.0420182 -23.4518,52.1660182 -23.4838,52.3260182 L-23.4838,52.3260182 L-24.1078,55.6860182 L-26.0878,56.0100182 L-26.0878,57.1860182 C-26.0878,57.3940182 -26.0298,57.5500182 -25.9138,57.6540182 C-25.7978,57.7580182 -25.6598,57.8100182 -25.4998,57.8100182 L-25.4998,57.8100182 L-24.2518,57.8100182 L-24.2518,64.6860182 C-24.2518,65.7500182 -23.9638,66.5840182 -23.3878,67.1880182 C-22.8118,67.7920182 -21.9918,68.0940182 -20.9278,68.0940182 Z M-12.7196,68.0940182 C-12.2796,68.0940182 -11.8796,68.0580182 -11.5196,67.9860182 C-11.1596,67.9140182 -10.8196,67.8060182 -10.4996,67.6620182 C-10.1796,67.5180182 -9.8696,67.3400182 -9.5696,67.1280182 C-9.2696,66.9160182 -8.9636,66.6700182 -8.6516,66.3900182 L-8.6516,66.3900182 L-8.3876,67.2660182 C-8.3076,67.5220182 -8.1876,67.6920182 -8.0276,67.7760182 C-7.8676,67.8600182 -7.6476,67.9020182 -7.3676,67.9020182 L-7.3676,67.9020182 L-6.0356,67.9020182 L-6.0356,60.1260182 C-6.0356,59.4300182 -6.1376,58.7900182 -6.3416,58.2060182 C-6.5456,57.6220182 -6.8436,57.1200182 -7.2356,56.7000182 C-7.6276,56.2800182 -8.1056,55.9520182 -8.6696,55.7160182 C-9.2336,55.4800182 -9.8756,55.3620182 -10.5956,55.3620182 C-12.5956,55.3620182 -14.3036,56.0100182 -15.7196,57.3060182 L-15.7196,57.3060182 L-15.1796,58.2540182 C-15.0916,58.4060182 -14.9756,58.5340182 -14.8316,58.6380182 C-14.6876,58.7420182 -14.5156,58.7940182 -14.3156,58.7940182 C-14.0756,58.7940182 -13.8556,58.7380182 -13.6556,58.6260182 C-13.4556,58.5140182 -13.2376,58.3880182 -13.0016,58.2480182 C-12.7656,58.1080182 -12.4876,57.9820182 -12.1676,57.8700182 C-11.8476,57.7580182 -11.4476,57.7020182 -10.9676,57.7020182 C-10.3036,57.7020182 -9.7976,57.9000182 -9.4496,58.2960182 C-9.1016,58.6920182 -8.9276,59.3020182 -8.9276,60.1260182 L-8.9276,60.1260182 L-8.9276,60.8460182 C-10.3276,60.8780182 -11.4996,61.0140182 -12.4436,61.2540182 C-13.3876,61.4940182 -14.1436,61.7960182 -14.7116,62.1600182 C-15.2796,62.5240182 -15.6856,62.9320182 -15.9296,63.3840182 C-16.1736,63.8360182 -16.2956,64.2940182 -16.2956,64.7580182 C-16.2956,65.3100182 -16.2076,65.7940182 -16.0316,66.2100182 C-15.8556,66.6260182 -15.6096,66.9740182 -15.2936,67.2540182 C-14.9776,67.5340182 -14.5996,67.7440182 -14.1596,67.8840182 C-13.7196,68.0240182 -13.2396,68.0940182 -12.7196,68.0940182 Z M-11.7956,66.0540182 C-12.2916,66.0540182 -12.6936,65.9420182 -13.0016,65.7180182 C-13.3096,65.4940182 -13.4636,65.1220182 -13.4636,64.6020182 C-13.4636,64.3380182 -13.3896,64.0940182 -13.2416,63.8700182 C-13.0936,63.6460182 -12.8436,63.4500182 -12.4916,63.2820182 C-12.1396,63.1140182 -11.6736,62.9760182 -11.0936,62.8680182 C-10.5136,62.7600182 -9.7916,62.6860182 -8.9276,62.6460182 L-8.9276,62.6460182 L-8.9276,64.7220182 C-9.1436,64.9460182 -9.3576,65.1400182 -9.5696,65.3040182 C-9.7816,65.4680182 -10.0016,65.6060182 -10.2296,65.7180182 C-10.4576,65.8300182 -10.6996,65.9140182 -10.9556,65.9700182 C-11.2116,66.0260182 -11.4916,66.0540182 -11.7956,66.0540182 Z M0.9246,68.0940182 C1.5246,68.0940182 2.1046,68.0020182 2.6646,67.8180182 C3.2246,67.6340182 3.7206,67.3620182 4.1526,67.0020182 L4.1526,67.0020182 L3.2646,65.5620182 C3.2006,65.4740182 3.1406,65.4080182 3.0846,65.3640182 C3.0286,65.3200182 2.9566,65.2980182 2.8686,65.2980182 C2.7966,65.2980182 2.7246,65.3200182 2.6526,65.3640182 C2.5806,65.4080182 2.4986,65.4540182 2.4066,65.5020182 C2.3146,65.5500182 2.2066,65.5960182 2.0826,65.6400182 C1.9586,65.6840182 1.8046,65.7060182 1.6206,65.7060182 C1.3006,65.7060182 1.0446,65.5980182 0.8526,65.3820182 C0.6606,65.1660182 0.5646,64.8660182 0.5646,64.4820182 L0.5646,64.4820182 L0.5646,57.8100182 L3.8046,57.8100182 L3.8046,55.6980182 L0.5646,55.6980182 L0.5646,51.8220182 L-0.9714,51.8220182 C-1.1474,51.8220182 -1.2934,51.8660182 -1.4094,51.9540182 C-1.5254,52.0420182 -1.5994,52.1660182 -1.6314,52.3260182 L-1.6314,52.3260182 L-2.2554,55.6860182 L-4.2354,56.0100182 L-4.2354,57.1860182 C-4.2354,57.3940182 -4.1774,57.5500182 -4.0614,57.6540182 C-3.9454,57.7580182 -3.8074,57.8100182 -3.6474,57.8100182 L-3.6474,57.8100182 L-2.3994,57.8100182 L-2.3994,64.6860182 C-2.3994,65.7500182 -2.1114,66.5840182 -1.5354,67.1880182 C-0.9594,67.7920182 -0.1394,68.0940182 0.9246,68.0940182 Z M7.8488,53.8620182 C8.1128,53.8620182 8.3608,53.8120182 8.5928,53.7120182 C8.8248,53.6120182 9.0268,53.4780182 9.1988,53.3100182 C9.3708,53.1420182 9.5088,52.9460182 9.6128,52.7220182 C9.7168,52.4980182 9.7688,52.2580182 9.7688,52.0020182 C9.7688,51.7380182 9.7168,51.4900182 9.6128,51.2580182 C9.5088,51.0260182 9.3708,50.8260182 9.1988,50.6580182 C9.0268,50.4900182 8.8248,50.3560182 8.5928,50.2560182 C8.3608,50.1560182 8.1128,50.1060182 7.8488,50.1060182 C7.5928,50.1060182 7.3508,50.1560182 7.1228,50.2560182 C6.8948,50.3560182 6.6968,50.4900182 6.5288,50.6580182 C6.3608,50.8260182 6.2268,51.0260182 6.1268,51.2580182 C6.0268,51.4900182 5.9768,51.7380182 5.9768,52.0020182 C5.9768,52.2580182 6.0268,52.4980182 6.1268,52.7220182 C6.2268,52.9460182 6.3608,53.1420182 6.5288,53.3100182 C6.6968,53.4780182 6.8948,53.6120182 7.1228,53.7120182 C7.3508,53.8120182 7.5928,53.8620182 7.8488,53.8620182 Z M9.3248,67.9020182 L9.3248,55.5900182 L6.3608,55.5900182 L6.3608,67.9020182 L9.3248,67.9020182 Z M17.929,68.0820182 C18.849,68.0820182 19.683,67.9340182 20.431,67.6380182 C21.179,67.3420182 21.817,66.9180182 22.345,66.3660182 C22.873,65.8140182 23.281,65.1460182 23.569,64.3620182 C23.857,63.5780182 24.001,62.6980182 24.001,61.7220182 C24.001,60.7540182 23.857,59.8780182 23.569,59.0940182 C23.281,58.3100182 22.873,57.6460182 22.345,57.1020182 C21.817,56.5580182 21.179,56.1380182 20.431,55.8420182 C19.683,55.5460182 18.849,55.3980182 17.929,55.3980182 C17.009,55.3980182 16.173,55.5460182 15.421,55.8420182 C14.669,56.1380182 14.027,56.5580182 13.495,57.1020182 C12.963,57.6460182 12.551,58.3100182 12.259,59.0940182 C11.967,59.8780182 11.821,60.7540182 11.821,61.7220182 C11.821,62.6980182 11.967,63.5780182 12.259,64.3620182 C12.551,65.1460182 12.963,65.8140182 13.495,66.3660182 C14.027,66.9180182 14.669,67.3420182 15.421,67.6380182 C16.173,67.9340182 17.009,68.0820182 17.929,68.0820182 Z M17.929,65.8020182 C16.889,65.8020182 16.121,65.4560182 15.625,64.7640182 C15.129,64.0720182 14.881,63.0660182 14.881,61.7460182 C14.881,60.4260182 15.129,59.4160182 15.625,58.7160182 C16.121,58.0160182 16.889,57.6660182 17.929,57.6660182 C18.953,57.6660182 19.711,58.0140182 20.203,58.7100182 C20.695,59.4060182 20.941,60.4180182 20.941,61.7460182 C20.941,63.0740182 20.695,64.0820182 20.203,64.7700182 C19.711,65.4580182 18.953,65.8020182 17.929,65.8020182 Z M29.2812,67.9020182 L29.2812,58.9980182 C29.6812,58.5980182 30.1052,58.2820182 30.5532,58.0500182 C31.0012,57.8180182 31.4812,57.7020182 31.9932,57.7020182 C32.6892,57.7020182 33.2112,57.9080182 33.5592,58.3200182 C33.9072,58.7320182 34.0812,59.3140182 34.0812,60.0660182 L34.0812,60.0660182 L34.0812,67.9020182 L37.0452,67.9020182 L37.0452,60.0660182 C37.0452,59.3780182 36.9552,58.7480182 36.7752,58.1760182 C36.5952,57.6040182 36.3312,57.1120182 35.9832,56.7000182 C35.6352,56.2880182 35.2012,55.9680182 34.6812,55.7400182 C34.1612,55.5120182 33.5652,55.3980182 32.8932,55.3980182 C32.4772,55.3980182 32.0932,55.4380182 31.7412,55.5180182 C31.3892,55.5980182 31.0592,55.7140182 30.7512,55.8660182 C30.4432,56.0180182 30.1512,56.1980182 29.8752,56.4060182 C29.5992,56.6140182 29.3372,56.8460182 29.0892,57.1020182 L29.0892,57.1020182 L28.8852,56.1300182 C28.7652,55.7700182 28.5132,55.5900182 28.1292,55.5900182 L28.1292,55.5900182 L26.3172,55.5900182 L26.3172,67.9020182 L29.2812,67.9020182 Z M45.7934,61.8900182 L45.7934,59.4180182 L39.5774,59.4180182 L39.5774,61.8900182 L45.7934,61.8900182 Z M52.3816,67.9020182 L52.3816,50.5500182 L49.1416,50.5500182 L49.1416,67.9020182 L52.3816,67.9020182 Z M63.6378,68.0940182 C65.0778,68.0940182 66.3118,67.8620182 67.3398,67.3980182 C68.3678,66.9340182 69.2338,66.2660182 69.9378,65.3940182 L69.9378,65.3940182 L68.6658,64.0140182 C68.5378,63.8780182 68.3858,63.8100182 68.2098,63.8100182 C68.1058,63.8100182 68.0098,63.8320182 67.9218,63.8760182 C67.8338,63.9200182 67.7498,63.9780182 67.6698,64.0500182 C67.4058,64.2900182 67.1398,64.4920182 66.8718,64.6560182 C66.6038,64.8200182 66.3198,64.9540182 66.0198,65.0580182 C65.7198,65.1620182 65.3918,65.2380182 65.0358,65.2860182 C64.6798,65.3340182 64.2818,65.3580182 63.8418,65.3580182 C63.1058,65.3580182 62.4178,65.2200182 61.7778,64.9440182 C61.1378,64.6680182 60.5818,64.2700182 60.1098,63.7500182 C59.6378,63.2300182 59.2638,62.5900182 58.9878,61.8300182 C58.7118,61.0700182 58.5738,60.2020182 58.5738,59.2260182 C58.5738,58.2820182 58.7118,57.4320182 58.9878,56.6760182 C59.2638,55.9200182 59.6478,55.2780182 60.1398,54.7500182 C60.6318,54.2220182 61.2198,53.8160182 61.9038,53.5320182 C62.5878,53.2480182 63.3378,53.1060182 64.1538,53.1060182 C64.8498,53.1060182 65.4238,53.1780182 65.8758,53.3220182 C66.3278,53.4660182 66.7018,53.6220182 66.9978,53.7900182 C67.2938,53.9580182 67.5378,54.1140182 67.7298,54.2580182 C67.9218,54.4020182 68.1098,54.4740182 68.2938,54.4740182 C68.4698,54.4740182 68.6078,54.4380182 68.7078,54.3660182 C68.8078,54.2940182 68.8898,54.2100182 68.9538,54.1140182 L68.9538,54.1140182 L70.0338,52.6140182 C69.3458,51.9340182 68.5198,51.3880182 67.5558,50.9760182 C66.5918,50.5640182 65.4658,50.3580182 64.1778,50.3580182 C62.8578,50.3580182 61.6518,50.5760182 60.5598,51.0120182 C59.4678,51.4480182 58.5298,52.0580182 57.7458,52.8420182 C56.9618,53.6260182 56.3538,54.5600182 55.9218,55.6440182 C55.4898,56.7280182 55.2738,57.9220182 55.2738,59.2260182 C55.2738,60.5140182 55.4678,61.7020182 55.8558,62.7900182 C56.2438,63.8780182 56.8018,64.8140182 57.5298,65.5980182 C58.2578,66.3820182 59.1358,66.9940182 60.1638,67.4340182 C61.1918,67.8740182 62.3498,68.0940182 63.6378,68.0940182 Z" id="Station-IC" fill="#0556A5" fill-rule="nonzero" transform="translate(15.516900, 59.100018) rotate(-90.000000) translate(-15.516900, -59.100018) "></path>
            <path d="M0.336880208,7.36230469 L0.336880208,3.84375 L1.6991849,3.84375 L1.6991849,3 L-2.15042448,3 L-2.15042448,3.84375 L-0.788119792,3.84375 L-0.788119792,7.36230469 L0.336880208,7.36230469 Z M3.43653958,7.36230469 L3.43653958,4.44140625 L4.24513333,6.33691406 L5.02150052,6.33691406 L5.83009427,4.44140625 L5.83009427,7.36230469 L6.9492349,7.36230469 L6.9492349,3 L5.64259427,3 L4.66407865,5.18847656 L3.68263333,3 L2.37599271,3 L2.37599271,7.36230469 L3.43653958,7.36230469 Z" id="TM" fill="#4E4F4F" fill-rule="nonzero" transform="translate(2.399405, 5.181152) rotate(-90.000000) translate(-2.399405, -5.181152) "></path>
            <line x1="35.7294583" y1="107.362305" x2="35.7294583" y2="14.3623047" id="Line" stroke="#0556A5" opacity="0.624860491" stroke-linecap="square"></line>
        </g>
    </g>
</svg>