<svg width="32" height="88" xmlns="http://www.w3.org/2000/svg">
    <defs>
        <filter id="a">
            <feColorMatrix in="SourceGraphic" values="0 0 0 0 1.000000 0 0 0 0 1.000000 0 0 0 0 1.000000 0 0 0 1.000000 0"/>
        </filter>
    </defs>
    <g transform="translate(-20 -474)" filter="url(#a)" fill="none" fill-rule="evenodd">
        <path d="M40.823 557.197c0-.747-.112-1.41-.338-1.989a4.316 4.316 0 0 0-.926-1.47 3.92 3.92 0 0 0-1.38-.916 4.586 4.586 0 0 0-1.7-.313c-.557 0-1.03.089-1.419.266-.389.178-.718.413-.986.705a3.967 3.967 0 0 0-.667 1c-.176.373-.33.755-.464 1.144-.132.389-.258.77-.375 1.144-.117.373-.25.707-.398 1a2.22 2.22 0 0 1-.538.704c-.21.178-.472.267-.787.267-.247 0-.474-.044-.681-.131a1.39 1.39 0 0 1-.533-.397 1.933 1.933 0 0 1-.347-.654 2.974 2.974 0 0 1-.125-.91c0-.387.047-.721.143-1.005.096-.283.202-.53.32-.742.117-.212.224-.395.32-.551a.823.823 0 0 0 .143-.42.602.602 0 0 0-.083-.323.689.689 0 0 0-.288-.238l-1.176-.616a4.983 4.983 0 0 0-1.038 1.718 6.345 6.345 0 0 0-.37 2.204c0 .704.108 1.33.324 1.878.216.548.503 1.01.861 1.387.359.376.77.663 1.233.859.463.196.939.294 1.427.294.611 0 1.125-.089 1.542-.266a3.076 3.076 0 0 0 1.043-.705c.277-.293.503-.626.676-1 .173-.373.321-.753.445-1.139.123-.386.237-.766.342-1.14a5.29 5.29 0 0 1 .385-.999c.151-.292.338-.527.56-.705.223-.177.51-.266.862-.266.63 0 1.114.196 1.45.588.337.393.505.947.505 1.663 0 .467-.063.867-.19 1.2a4.926 4.926 0 0 1-.421.869c-.155.245-.295.459-.422.64-.127.18-.19.348-.19.504 0 .118.03.225.088.322a.927.927 0 0 0 .218.247l1.195.729c.266-.262.507-.559.723-.892.216-.333.401-.691.556-1.074.154-.383.273-.783.356-1.2.084-.417.125-.84.125-1.27zm0-9.629c0-.467-.07-.918-.213-1.354a3.5 3.5 0 0 0-.63-1.158l-1.111.69a.775.775 0 0 0-.153.14.265.265 0 0 0-.051.169c0 .056.017.112.05.168.035.056.07.12.107.192.037.071.073.155.107.252.034.096.05.216.05.36 0 .248-.083.448-.25.597-.166.15-.398.224-.694.224h-5.152v-2.521h-1.63v2.521H28.26v1.196c0 .137.034.25.102.34.068.09.163.149.287.173l2.594.486.25 1.541h.908c.161 0 .281-.045.362-.135.08-.09.12-.198.12-.322v-.972h5.31c.82 0 1.465-.224 1.93-.672.467-.449.7-1.087.7-1.915zm0-6.388c0-.343-.027-.654-.083-.934a3.713 3.713 0 0 0-.25-.794 4.347 4.347 0 0 0-.412-.724 7.902 7.902 0 0 0-.57-.715l.676-.205c.198-.062.33-.156.394-.28.065-.125.097-.296.097-.514v-1.037h-6.004c-.537 0-1.031.08-1.482.238-.451.16-.839.391-1.163.696a3.187 3.187 0 0 0-.76 1.116c-.182.44-.273.939-.273 1.5 0 1.556.5 2.885 1.501 3.987l.732-.42a.95.95 0 0 0 .296-.27.671.671 0 0 0 .12-.402 1.04 1.04 0 0 0-.129-.514 23.773 23.773 0 0 0-.292-.509 3.627 3.627 0 0 1-.292-.65c-.086-.248-.13-.56-.13-.933 0-.517.154-.91.46-1.182.305-.27.776-.406 1.412-.406h.556c.025 1.09.13 2.002.315 2.737.186.734.419 1.323.7 1.765.28.442.596.758.945.948.349.19.702.285 1.06.285.427 0 .8-.069 1.122-.206a2.21 2.21 0 0 0 .806-.574c.216-.246.378-.54.486-.883.108-.342.162-.716.162-1.12zm-1.575-.72c0 .386-.086.7-.259.939-.173.24-.46.36-.862.36a1 1 0 0 1-.565-.173c-.173-.115-.324-.31-.454-.584-.13-.274-.236-.637-.32-1.088a12.73 12.73 0 0 1-.17-1.686h1.602c.173.168.323.335.45.5.126.165.232.336.319.514.086.177.151.365.195.565.043.199.064.417.064.653zm1.575-9.9c0-.467-.07-.918-.213-1.354a3.5 3.5 0 0 0-.63-1.158l-1.111.69a.775.775 0 0 0-.153.14.265.265 0 0 0-.051.169c0 .056.017.112.05.168.035.056.07.12.107.192.037.071.073.155.107.252.034.096.05.216.05.36 0 .248-.083.448-.25.597-.166.15-.398.224-.694.224h-5.152v-2.521h-1.63v2.521H28.26v1.196c0 .137.034.25.102.34.068.09.163.149.287.173l2.594.486.25 1.541h.908c.161 0 .281-.045.362-.135.08-.09.12-.198.12-.322v-.972h5.31c.82 0 1.465-.224 1.93-.672.467-.449.7-1.087.7-1.915zm-10.988-5.39c0-.205-.039-.398-.116-.578a1.528 1.528 0 0 0-.764-.794 1.379 1.379 0 0 0-1.13 0 1.494 1.494 0 0 0-.774 1.938 1.47 1.47 0 0 0 1.348.892c.197 0 .383-.039.556-.117a1.497 1.497 0 0 0 .764-.775 1.4 1.4 0 0 0 .116-.565zm10.84-1.148H31.17v2.307h9.506v-2.307zm.14-6.697c0-.716-.115-1.365-.344-1.947a4.141 4.141 0 0 0-.982-1.49 4.396 4.396 0 0 0-1.547-.952c-.605-.224-1.285-.337-2.038-.337-.748 0-1.424.113-2.03.337a4.301 4.301 0 0 0-1.537.952c-.42.411-.745.908-.973 1.49-.229.582-.343 1.231-.343 1.947s.114 1.367.343 1.952a4.24 4.24 0 0 0 .973 1.5c.42.413.932.734 1.538.961.605.228 1.281.341 2.029.341.753 0 1.433-.113 2.038-.34a4.415 4.415 0 0 0 1.547-.963c.426-.414.754-.913.982-1.499.229-.585.343-1.236.343-1.952zm-1.761 0c0 .81-.267 1.408-.802 1.794-.534.386-1.31.579-2.33.579-1.019 0-1.799-.193-2.34-.58-.54-.385-.81-.983-.81-1.793 0-.797.269-1.387.806-1.77.537-.382 1.319-.574 2.344-.574 1.026 0 1.804.192 2.335.574.531.383.797.973.797 1.77zm1.621-8.835H33.8a4.015 4.015 0 0 1-.732-.99 2.418 2.418 0 0 1-.268-1.121c0-.542.159-.948.477-1.219.318-.27.767-.406 1.348-.406h6.05v-2.307h-6.05c-.531 0-1.018.07-1.46.21a3.25 3.25 0 0 0-1.139.617c-.318.27-.565.608-.741 1.013-.176.405-.264.869-.264 1.392 0 .323.03.622.092.896s.152.531.27.77c.117.24.256.468.416.682.16.215.34.42.538.612l-.751.159c-.278.093-.417.29-.417.588v1.41h9.506v-2.306zm-4.642-12.852h-1.908v4.838h1.908v-4.838zm4.642-5.128H27.278v2.522h13.397v-2.522zm.148-8.76c0-1.121-.179-2.082-.537-2.882a5.432 5.432 0 0 0-1.547-2.022l-1.066.99a.473.473 0 0 0-.157.355c0 .081.017.156.05.224a.886.886 0 0 0 .135.197c.185.205.341.412.468.62.127.21.23.43.31.664.08.233.14.489.176.766.037.277.056.586.056.929a4.04 4.04 0 0 1-.32 1.606c-.213.498-.52.931-.922 1.299a4.413 4.413 0 0 1-1.482.873c-.587.215-1.257.322-2.01.322-.73 0-1.386-.107-1.97-.322a4.32 4.32 0 0 1-1.486-.897 3.893 3.893 0 0 1-.94-1.373 4.555 4.555 0 0 1-.33-1.75c0-.543.056-.99.167-1.341a4.665 4.665 0 0 1 .723-1.443.738.738 0 0 0 .166-.44.546.546 0 0 0-.083-.321.76.76 0 0 0-.195-.192l-1.158-.84a6.148 6.148 0 0 0-1.264 1.928c-.319.75-.478 1.627-.478 2.63 0 1.027.169 1.965.505 2.815a6.43 6.43 0 0 0 1.413 2.19 6.333 6.333 0 0 0 2.164 1.42c.837.336 1.759.504 2.765.504.995 0 1.912-.15 2.752-.453a6.196 6.196 0 0 0 2.168-1.302 5.96 5.96 0 0 0 1.418-2.05c.34-.8.51-1.702.51-2.704z" fill="#0556A5" fill-rule="nonzero"/>
        <path d="M25.354 479.177h-2.717v-1.06h-.651v2.996h.651v-1.06h2.717v-.876zm0-2.412h-2.255l1.463-.63v-.604l-1.463-.63h2.255v-.87h-3.368v1.017l1.69.761-1.69.764v1.017h3.368v-.825z" fill="#4E4F4F" fill-rule="nonzero"/>
        <path stroke="#0556A5" opacity=".625" stroke-linecap="square" d="M49.61 556.467V484.66"/>
    </g>
</svg>
