<svg width="32" height="32" xmlns="http://www.w3.org/2000/svg">
    <defs>
        <filter id="a">
            <feColorMatrix in="SourceGraphic" values="0 0 0 0 1.000000 0 0 0 0 1.000000 0 0 0 0 1.000000 0 0 0 1.000000 0"/>
        </filter>
    </defs>
    <g transform="translate(-16 -574)" filter="url(#a)" fill="none" fill-rule="evenodd">
        <path d="M34.62 597.63v8.173c-.682.11-1.377.175-2.084.197v-7.965a8.06 8.06 0 0 0 2.083-.405zm-5.39-.08c.579.216 1.188.368 1.822.445v7.986a16.031 16.031 0 0 1-1.823-.217zm8.957-2.341v9.58c-.753.313-1.537.569-2.343.766v-8.45a8.103 8.103 0 0 0 2.343-1.896zm-12.265.046a8.108 8.108 0 0 0 1.562 1.401v8.7a15.926 15.926 0 0 1-1.562-.55zm15.832-3.857v11.333a15.981 15.981 0 0 1-2.603 1.618v-10.55c.396-.74.678-1.547.828-2.4h1.775zm-17.838-15.205v27.615a16.057 16.057 0 0 1-1.301-.852v-25.911c.419-.304.853-.589 1.301-.852zM48 591.398a15.968 15.968 0 0 1-5.542 10.763v-10.763zM20.349 579.04v21.918c-.367-.39-.715-.798-1.042-1.223v-19.471c.327-.426.675-.833 1.042-1.224zm11.684 3.966c.204 0 .405.013.605.03v13.926c-.2.017-.4.03-.605.03a7.007 7.007 0 0 1-1.564-.181v-13.623a6.97 6.97 0 0 1 1.564-.182zm1.683.212c.614.152 1.197.38 1.736.681v12.2a6.979 6.979 0 0 1-1.736.682zm-3.959.174v13.215c-2.748-.944-4.726-3.542-4.726-6.608 0-3.065 1.978-5.663 4.726-6.607zm-12.976 1.668v9.88A15.984 15.984 0 0 1 16 590c0-1.725.276-3.384.781-4.94zm20.332.136a7.004 7.004 0 0 1 1.302 1.936v5.735a7 7 0 0 1-1.302 1.936zm2.038-9.545c.922.456 1.793.999 2.604 1.618v11.332H39.98a8.021 8.021 0 0 0-.829-2.4zm3.307 2.188A15.968 15.968 0 0 1 48 588.602h-5.542zm-6.614-3.394c.806.197 1.59.452 2.343.765v9.58a8.081 8.081 0 0 0-2.343-1.895zm-8.36.2v8.698a8.108 8.108 0 0 0-1.562 1.402v-9.55c.508-.21 1.03-.393 1.562-.55zm3.568-.626v7.985a7.995 7.995 0 0 0-1.823.445v-8.214a16.164 16.164 0 0 1 1.823-.216zm1.484-.02c.707.022 1.402.087 2.083.198v8.172a8.06 8.06 0 0 0-2.083-.404z" fill="#0556A5"/>
    </g>
</svg>
