<?xml version="1.0" encoding="UTF-8"?>
<svg width="440px" height="125px" viewBox="0 0 440 125" version="1.1" xmlns="http://www.w3.org/2000/svg" xmlns:xlink="http://www.w3.org/1999/xlink">
    <title>Artboard</title>
    <g id="Artboard" stroke="none" stroke-width="1" fill="none" fill-rule="evenodd">
        <g id="Logo" fill="#0556A5">
            <path d="M227.04,118 L227.906,115.15 L233.057,115.15 L233.937,118 L236.597,118 L232.417,104.32 L228.56,104.32 L224.38,118 L227.04,118 Z M232.312,112.737 L228.64,112.737 L230.462,106.742 L232.312,112.737 Z M241.829,118 L241.829,108.88 L247.776,118 L250.398,118 L250.398,104.32 L247.776,104.32 L247.776,113.44 L241.829,104.32 L239.207,104.32 L239.207,118 L241.829,118 Z M261.242,118 L261.242,112.357 L267.36,112.357 L267.36,118 L269.944,118 L269.944,104.32 L267.36,104.32 L267.36,109.944 L261.242,109.944 L261.242,104.32 L258.658,104.32 L258.658,118 L261.242,118 Z M275.917,118 L275.917,109.83 L279.888,118 L280.8,118 L284.771,109.83 L284.771,118 L287.184,118 L287.184,104.32 L284.866,104.32 L280.344,113.402 L275.822,104.32 L273.504,104.32 L273.504,118 L275.917,118 Z M300.632819,117.995118 L300.666953,115.614964 L293.328,115.587 L293.328,112.072 L299.997211,112.072119 L300.011807,109.698635 L293.328,109.659 L293.328,106.733 L300.674016,106.678244 L300.697714,104.371695 L290.744,104.32 L290.744,118 L300.632819,117.995118 Z M313.425,118.285 C314.995667,118.285 316.314583,117.8955 317.38175,117.1165 C318.448917,116.3375 319.201,115.283 319.638,113.953 L319.638,113.953 L317.035,113.231 C316.781667,114.054333 316.354167,114.697167 315.7525,115.1595 C315.150833,115.621833 314.375,115.853 313.425,115.853 C312.557333,115.853 311.83375,115.659833 311.25425,115.2735 C310.67475,114.887167 310.239333,114.3425 309.948,113.6395 C309.656667,112.9365 309.511,112.11 309.511,111.16 C309.511,110.21 309.656667,109.3835 309.948,108.6805 C310.239333,107.9775 310.67475,107.432833 311.25425,107.0465 C311.83375,106.660167 312.557333,106.467 313.425,106.467 C314.375,106.467 315.150833,106.696583 315.7525,107.15575 C316.354167,107.614917 316.781667,108.259333 317.035,109.089 L317.035,109.089 L319.638,108.367 C319.201,107.037 318.448917,105.9825 317.38175,105.2035 C316.314583,104.4245 314.995667,104.035 313.425,104.035 C312.057,104.035 310.877417,104.332667 309.88625,104.928 C308.895083,105.523333 308.131917,106.356167 307.59675,107.4265 C307.061583,108.496833 306.794,109.741333 306.794,111.16 C306.794,112.578667 307.061583,113.823167 307.59675,114.8935 C308.131917,115.963833 308.895083,116.796667 309.88625,117.392 C310.877417,117.987333 312.057,118.285 313.425,118.285 Z M328.499,118.285 C329.867,118.285 331.046583,117.987333 332.03775,117.392 C333.028917,116.796667 333.792083,115.963833 334.32725,114.8935 C334.862417,113.823167 335.13,112.578667 335.13,111.16 C335.13,109.741333 334.862417,108.496833 334.32725,107.4265 C333.792083,106.356167 333.028917,105.523333 332.03775,104.928 C331.046583,104.332667 329.867,104.035 328.499,104.035 C327.131,104.035 325.951417,104.332667 324.96025,104.928 C323.969083,105.523333 323.205917,106.356167 322.67075,107.4265 C322.135583,108.496833 321.868,109.741333 321.868,111.16 C321.868,112.578667 322.135583,113.823167 322.67075,114.8935 C323.205917,115.963833 323.969083,116.796667 324.96025,117.392 C325.951417,117.987333 327.131,118.285 328.499,118.285 Z M328.499,115.853 C327.631333,115.840333 326.909333,115.640833 326.333,115.2545 C325.756667,114.868167 325.324417,114.326667 325.03625,113.63 C324.748083,112.933333 324.604,112.11 324.604,111.16 C324.604,110.21 324.748083,109.380333 325.03625,108.671 C325.324417,107.961667 325.756667,107.413833 326.333,107.0275 C326.909333,106.641167 327.631333,106.454333 328.499,106.467 C329.366667,106.479667 330.088667,106.679167 330.665,107.0655 C331.241333,107.451833 331.673583,107.993333 331.96175,108.69 C332.249917,109.386667 332.394,110.21 332.394,111.16 C332.394,112.11 332.249917,112.939667 331.96175,113.649 C331.673583,114.358333 331.241333,114.906167 330.665,115.2925 C330.088667,115.678833 329.366667,115.865667 328.499,115.853 Z M340.343,118 L340.343,109.83 L344.314,118 L345.226,118 L349.197,109.83 L349.197,118 L351.61,118 L351.61,104.32 L349.292,104.32 L344.77,113.402 L340.248,104.32 L337.93,104.32 L337.93,118 L340.343,118 Z M357.754,118 L357.754,113.364 L360.946,113.364 C361.072667,113.364 361.25,113.357667 361.478,113.345 C361.706,113.332333 361.908667,113.313333 362.086,113.288 C362.896667,113.161333 363.56325,112.892167 364.08575,112.4805 C364.60825,112.068833 364.994583,111.551083 365.24475,110.92725 C365.494917,110.303417 365.62,109.608333 365.62,108.842 C365.62,108.075667 365.4965,107.380583 365.2495,106.75675 C365.0025,106.132917 364.61775,105.615167 364.09525,105.2035 C363.57275,104.791833 362.903,104.522667 362.086,104.396 C361.908667,104.364333 361.707583,104.34375 361.48275,104.33425 C361.257917,104.32475 361.079,104.32 360.946,104.32 L360.946,104.32 L355.17,104.32 L355.17,118 L357.754,118 Z M360.832,110.951 L357.754,110.951 L357.754,106.733 L360.832,106.733 C360.965,106.733 361.110667,106.739333 361.269,106.752 C361.427333,106.764667 361.573,106.79 361.706,106.828 C362.054333,106.923 362.3235,107.082917 362.5135,107.30775 C362.7035,107.532583 362.834917,107.78275 362.90775,108.05825 C362.980583,108.33375 363.017,108.595 363.017,108.842 C363.017,109.089 362.980583,109.35025 362.90775,109.62575 C362.834917,109.90125 362.7035,110.151417 362.5135,110.37625 C362.3235,110.601083 362.054333,110.761 361.706,110.856 C361.573,110.894 361.427333,110.919333 361.269,110.932 C361.110667,110.944667 360.965,110.951 360.832,110.951 L360.832,110.951 Z M369.18,118 L370.046,115.15 L375.197,115.15 L376.077,118 L378.737,118 L374.557,104.32 L370.7,104.32 L366.52,118 L369.18,118 Z M374.452,112.737 L370.78,112.737 L372.602,106.742 L374.452,112.737 Z M383.969,118 L383.969,108.88 L389.916,118 L392.538,118 L392.538,104.32 L389.916,104.32 L389.916,113.44 L383.969,104.32 L381.347,104.32 L381.347,118 L383.969,118 Z M402.064,118 L402.064,112.433 L406.738,104.32 L403.717,104.32 L400.753,109.469 L397.789,104.32 L394.768,104.32 L399.442,112.433 L399.442,118 L402.064,118 Z" id="AN-HME-COMPANY-logo" fill-rule="nonzero"></path>
            <g id="Clear-Logo" transform="translate(13.750000, 20.705882)">
                <path d="M48.8204063,62.5139922 L48.8204063,83.8272471 C47.0535313,84.1154039 45.2505625,84.284502 43.4166563,84.3414431 L43.4166563,84.3414431 L43.4166563,63.5699922 C45.2969688,63.4526588 47.1068125,63.0954824 48.8204063,62.5139922 L48.8204063,62.5139922 Z M34.8363125,62.3062431 C36.3402188,62.8670275 37.91975,63.2656157 39.5645938,63.4657725 L39.5645938,63.4657725 L39.5645938,84.2907137 C37.9627188,84.1923608 36.3849063,84.0008314 34.8363125,83.7247529 L34.8363125,83.7247529 Z M58.0760469,56.1999059 L58.0760469,81.1832784 C56.1218281,81.9994353 54.0885469,82.6672 51.9968281,83.1796706 L51.9968281,83.1796706 L51.9968281,61.1451608 C54.3240156,59.8907294 56.3813594,58.2049255 58.0760469,56.1999059 L58.0760469,56.1999059 Z M26.2559688,56.32 C27.4453438,57.7055686 28.8014375,58.9392941 30.3087813,59.9745882 L30.3087813,59.9745882 L30.3087813,82.6596078 C28.9269063,82.2489412 27.57425,81.7727059 26.2559688,81.2257255 L26.2559688,81.2257255 Z M67.331,46.2619451 L67.331,75.8161412 C65.2289688,77.4294745 62.9670938,78.8443765 60.5763125,80.0349647 L60.5763125,80.0349647 L60.5763125,52.5220235 C61.604125,50.594651 62.3363125,48.4878275 62.7264688,46.2619451 L62.7264688,46.2619451 L67.331,46.2619451 Z M21.0529688,6.60793725 L21.0529688,78.6247216 C19.889375,77.9379765 18.7635938,77.1960157 17.675625,76.4022902 L17.675625,76.4022902 L17.675625,8.83036863 C18.7635938,8.03664314 19.889375,7.29468235 21.0529688,6.60793725 L21.0529688,6.60793725 Z M282.867406,9.05278431 C293.75225,9.05278431 301.698031,15.004 301.698031,27.3843922 L301.698031,33.2562353 L287.078344,33.2562353 L287.078057,25.844838 C287.071328,23.6795412 286.906469,20.3219608 282.867406,20.3219608 C278.828344,20.3219608 278.663484,23.6795412 278.656755,25.844838 L278.656755,57.678885 C278.663484,59.4582876 278.828344,63.2556078 282.867406,63.2556078 C286.906469,63.2556078 287.071328,59.4582876 287.078057,57.678885 L287.078344,48.1782745 L301.698031,48.1782745 L301.698031,56.1931765 C301.698031,67.4623529 294.46725,74.5265098 282.867406,74.5265098 C271.267563,74.5265098 264.036781,67.4623529 264.036781,56.1931765 L264.036781,27.3843922 C264.036781,15.004 271.982563,9.05278431 282.867406,9.05278431 Z M171.369859,21.7504941 C185.035641,21.7504941 188.134547,30.2416314 188.134547,36.1928471 L188.134547,50.1606902 L168.270953,50.1606902 L168.27134,61.3007981 C168.2787,63.0113647 168.425898,65.1603765 171.369859,65.1603765 C174.31382,65.1603765 174.461018,63.0113647 174.468378,61.3007981 L174.468766,54.6849255 L188.134547,54.6849255 L188.134547,60.0822588 C188.134547,66.0334745 185.035641,74.5263373 171.369859,74.5263373 C157.704078,74.5263373 154.605172,66.0334745 154.605172,60.0822588 L154.605172,36.1928471 C154.605172,30.2416314 157.704078,21.7504941 171.369859,21.7504941 Z M116.071484,9.05278431 C126.956328,9.05278431 134.902109,15.004 134.902109,27.3843922 L134.902109,33.2562353 L120.284141,33.2562353 L120.284141,26.1144314 C120.284141,23.9713725 120.284141,20.3219608 116.071484,20.3219608 C112.03407,20.3219608 111.869278,23.6795412 111.862552,25.844838 L111.862552,57.678885 C111.869278,59.4582876 112.03407,63.2556078 116.071484,63.2556078 C120.198168,63.2556078 120.282386,59.2949805 120.284105,57.5681026 L120.284141,48.1782745 L134.902109,48.1782745 L134.902109,56.1931765 C134.902109,67.4623529 127.673047,74.5265098 116.071484,74.5265098 C104.471641,74.5265098 97.2408594,67.4623529 97.2408594,56.1931765 L97.2408594,27.3843922 C97.2408594,15.004 105.186641,9.05278431 116.071484,9.05278431 Z M320.845766,21.7498039 C334.511547,21.7498039 337.610453,30.2409412 337.610453,36.1938824 L337.610453,60.0815686 C337.610453,66.0345098 334.511547,74.5256471 320.845766,74.5256471 C307.178266,74.5256471 304.081078,66.0345098 304.081078,60.0815686 L304.081078,36.1938824 C304.081078,30.2409412 307.178266,21.7498039 320.845766,21.7498039 Z M207.361516,21.7498039 C219.676359,21.7498039 223.887297,26.670902 223.887297,37.6225882 L223.887297,73.4938039 L211.333547,73.4938039 L211.333547,69.604549 L211.175422,69.604549 C209.109484,72.7000784 205.295578,74.5256471 201.481672,74.5256471 C191.697492,74.5256471 190.413066,67.5515223 190.359736,59.6055938 L190.357922,59.0497255 L190.357922,59.0497255 C190.357922,49.5267451 195.680891,46.3518431 200.687609,44.1294118 C205.771672,41.9880784 210.697609,40.7957647 210.697609,35.3207843 C210.697609,32.6221176 210.061672,31.1140392 207.519641,31.1140392 C205.056672,31.1140392 204.023703,32.4633725 204.023703,34.6064314 L204.023703,38.7338039 L191.311828,38.7338039 L191.311828,34.1301961 C191.311828,26.670902 197.985734,21.7498039 207.361516,21.7498039 Z M83.5348594,46.2603922 C82.5672031,57.470902 77.1978281,67.411451 69.1575156,74.3289412 L69.1575156,74.3289412 L69.1575156,46.2603922 Z M151.270625,10.0854902 L151.270625,73.4955294 L137.603125,73.4955294 L137.603125,10.0854902 L151.270625,10.0854902 Z M384.804234,21.7498039 C391.399078,21.7498039 394.814234,26.3534118 394.814234,32.6221176 L394.814234,73.4938039 L381.148453,73.4938039 L381.14816,39.1944103 C381.141863,37.3052548 381.000182,33.971451 377.812359,33.971451 C374.622894,33.971451 374.48114,37.8850468 374.47484,39.2717159 L374.474547,73.4938039 L360.808766,73.4938039 L360.808473,39.1944103 C360.802172,37.3052548 360.660418,33.971451 357.470953,33.971451 C354.208995,33.971451 354.136507,38.0691911 354.134896,39.3642793 L354.134859,73.4938039 L340.469078,73.4938039 L340.469078,22.7816471 L353.657047,22.7816471 L353.657047,29.0520784 L353.816891,29.0520784 C356.358922,24.4484706 358.902672,21.7498039 364.464547,21.7498039 C368.833609,21.7498039 372.807359,23.7341176 373.919391,29.0520784 C376.540484,24.4484706 378.527359,21.7498039 384.804234,21.7498039 Z M253.444125,21.7498039 L253.444125,38.2575686 L246.610375,38.2575686 C241.923344,38.2575686 240.572406,41.1926275 240.572406,44.6850196 L240.572406,73.4938039 L226.906625,73.4938039 L226.906625,22.7816471 L239.857406,22.7816471 L239.857406,31.7490196 L240.015531,31.7490196 C241.012406,27.6043922 242.619438,24.5209412 247.237719,22.5331765 C248.717563,21.8964706 252.522875,21.7498039 253.444125,21.7498039 Z M11.7971563,14.0365176 L11.7971563,71.1951059 C10.8449688,70.1787922 9.942625,69.1141647 9.09528125,68.0046745 L9.09528125,68.0046745 L9.09528125,17.226949 C9.942625,16.1174588 10.8449688,15.0545569 11.7971563,14.0365176 L11.7971563,14.0365176 Z M210.697609,48.0186667 L206.885422,50.7967059 C205.295578,51.9872941 204.499797,53.3366275 204.499797,55.3209412 L204.499797,62.0658824 C204.499797,64.9232941 205.613547,66.1138824 207.519641,66.1138824 C209.664641,66.1138824 210.697609,64.1295686 210.697609,61.6690196 L210.697609,48.0186667 Z M320.845766,31.1140392 C317.824332,31.1140392 317.748796,33.3776451 317.746908,35.1093036 L317.746859,61.0340392 C317.746859,62.7802353 317.746859,65.1614118 320.845766,65.1614118 C323.789727,65.1614118 323.936925,63.0124 323.944285,61.300354 L323.944285,34.975097 C323.936925,33.263051 323.789727,31.1140392 320.845766,31.1140392 Z M42.1116094,24.3791059 C42.6409844,24.3791059 43.1617656,24.4136157 43.6808281,24.4584784 L43.6808281,24.4584784 L43.6808281,60.7731451 C43.1617656,60.8180078 42.6409844,60.8525176 42.1116094,60.8525176 C40.7142656,60.8525176 39.3581719,60.6799686 38.0519219,60.3797333 L38.0519219,60.3797333 L38.0519219,24.8536157 C39.3581719,24.5516549 40.7142656,24.3791059 42.1116094,24.3791059 Z M46.476375,24.9317804 C48.0696563,25.3269176 49.5821563,25.9222118 50.9795,26.7073098 L50.9795,26.7073098 L50.9795,58.525349 C49.5821563,59.3104471 48.0696563,59.9057412 46.476375,60.3008784 L46.476375,60.3008784 Z M36.2070156,25.3838588 L36.2070156,59.8488 C29.0759219,57.3865255 23.9454531,50.6105255 23.9454531,42.6163294 C23.9454531,34.6221333 29.0759219,27.8461333 36.2070156,25.3838588 L36.2070156,25.3838588 Z M2.54134375,29.7338196 L2.54134375,55.4988392 C1.23165625,51.4387608 0.5149375,47.1129569 0.5149375,42.6163294 C0.5149375,38.119702 1.23165625,33.7921725 2.54134375,29.7338196 L2.54134375,29.7338196 Z M55.290125,30.0889255 C56.678875,31.5607686 57.8252813,33.2638275 58.6674688,35.1377098 L58.6674688,35.1377098 L58.6674688,50.0959843 C57.8252813,51.9698667 56.678875,53.6712 55.290125,55.1430431 L55.290125,55.1430431 Z M260.85125,43.299451 L260.85125,55.0448627 L244.115781,55.0448627 L244.115781,43.299451 L260.85125,43.299451 Z M171.369859,31.1147294 C168.425898,31.1147294 168.2787,33.2621839 168.27134,34.9755536 L168.270953,40.7964549 L174.468766,40.7964549 L174.468378,34.9755536 C174.461018,33.2621839 174.31382,31.1147294 171.369859,31.1147294 Z M60.5775156,5.19700392 C62.9682969,6.38759216 65.2284531,7.80249412 67.3322031,9.41582745 L67.3322031,9.41582745 L67.3322031,38.9700235 L62.7276719,38.9700235 C62.3375156,36.7441412 61.6053281,34.6373176 60.5775156,32.7099451 L60.5775156,32.7099451 Z M69.1575156,10.9028549 C77.1978281,17.8203451 82.5672031,27.7608941 83.5348594,38.9696784 L83.5348594,38.9696784 L69.1575156,38.9696784 Z M406.633047,21.4568157 C410.378203,21.4568157 413.361953,24.5126588 413.361953,28.3346196 C413.361953,32.2152471 410.378203,35.2417569 406.602109,35.2417569 C402.858672,35.2417569 399.813047,32.2152471 399.813047,28.3346196 C399.813047,24.5126588 402.858672,21.4568157 406.602109,21.4568157 L406.633047,21.4568157 Z M406.633047,22.5266196 L406.602109,22.5266196 C403.589141,22.5266196 401.122734,25.1252078 401.122734,28.3346196 C401.122734,31.6044235 403.589141,34.1719529 406.633047,34.1719529 C409.676953,34.2030118 412.114141,31.6044235 412.114141,28.3639529 C412.114141,25.1252078 409.676953,22.5266196 406.633047,22.5266196 Z M406.268672,24.4833255 C407.425391,24.4833255 408.185078,24.7283451 408.642266,25.0630902 C409.099453,25.3995608 409.341797,25.9206588 409.341797,26.6522667 C409.341797,27.6616784 408.671484,28.272502 407.851641,28.5175216 L407.851641,28.5779137 C408.520234,28.7004235 408.977422,29.3129725 409.128672,30.4431686 C409.310859,31.6354824 409.494766,32.0927373 409.616797,32.3377569 L408.338047,32.3377569 C408.155859,32.0927373 407.973672,31.3904627 407.820703,30.381051 C407.636797,29.4044235 407.150391,29.0368941 406.175859,29.0368941 L405.323359,29.0368941 L405.323359,32.3377569 L404.104766,32.3377569 L404.104766,24.6662275 L404.530346,24.6062637 C405.030344,24.5386477 405.557491,24.4833255 406.268672,24.4833255 Z M51.9971719,2.05350588 C54.0888906,2.56597647 56.1204531,3.23201569 58.0763906,4.04817255 L58.0763906,4.04817255 L58.0763906,29.0332706 C56.3817031,27.0265255 54.3243594,25.3407216 51.9971719,24.0880157 L51.9971719,24.0880157 Z M30.3094688,2.57287843 L30.3094688,25.257898 C28.802125,26.2931922 27.4460313,27.5269176 26.2566563,28.9124863 L26.2566563,28.9124863 L26.2566563,4.00676078 C27.5749375,3.45978039 28.9275938,2.9835451 30.3094688,2.57287843 L30.3094688,2.57287843 Z M406.206797,25.4306196 C405.811484,25.4306196 405.536484,25.4599529 405.323359,25.4910118 L405.323359,28.0896 L406.206797,28.0896 C407.212266,28.0896 408.064766,27.7220706 408.064766,26.7747765 C408.064766,26.1035608 407.574922,25.4306196 406.206797,25.4306196 Z M39.5652813,0.941427451 L39.5652813,21.7663686 C37.9204375,21.9665255 36.3409063,22.3651137 34.837,22.925898 L34.837,22.925898 L34.837,1.50566275 C36.3855938,1.2313098 37.9616875,1.03978039 39.5652813,0.941427451 L39.5652813,0.941427451 Z M43.4166563,0.889317647 C45.2505625,0.946258824 47.0535313,1.11708235 48.8204063,1.40523922 L48.8204063,1.40523922 L48.8204063,22.7184941 C47.1068125,22.1370039 45.2969688,21.7798275 43.4166563,21.6624941 L43.4166563,21.6624941 Z" id="Combined-Shape"></path>
            </g>
        </g>
    </g>
</svg>