<svg xmlns="http://www.w3.org/2000/svg" width="32" height="32" viewBox="0 0 32 32">
    <defs>
        <filter id="sux4qu1l0a">
            <feColorMatrix in="SourceGraphic" values="0 0 0 0 1.000000 0 0 0 0 1.000000 0 0 0 0 1.000000 0 0 0 1.000000 0"/>
        </filter>
    </defs>
    <g fill="none" fill-rule="evenodd">
        <g>
            <g filter="url(#sux4qu1l0a)" transform="translate(-16 -622) translate(0 48)">
                <g>
                    <path fill="#0556A5" d="M18.62 23.63v8.173c-.682.11-1.377.175-2.084.197v-7.965c.725-.045 1.423-.182 2.083-.405zm-5.39-.08c.579.216 1.188.368 1.822.445v7.986c-.618-.038-1.226-.112-1.823-.217zm8.957-2.341v9.58c-.753.313-1.537.569-2.343.766v-8.45c.897-.48 1.69-1.127 2.343-1.896zm-12.265.046c.458.531.981 1.004 1.562 1.401v8.7c-.533-.158-1.054-.341-1.562-.55zm15.832-3.857v11.333c-.81.619-1.682 1.161-2.603 1.618v-10.55c.396-.74.678-1.547.828-2.4h1.775zM7.916 2.193v27.615c-.448-.263-.882-.548-1.301-.852V3.045c.419-.304.853-.589 1.301-.852zM32 17.398c-.373 4.298-2.443 8.11-5.542 10.763V17.398zM4.349 5.04V26.96c-.367-.39-.715-.798-1.042-1.223V6.265c.327-.426.675-.833 1.042-1.224zm11.684 3.966c.204 0 .405.013.605.03v13.926c-.2.017-.4.03-.605.03-.538 0-1.06-.066-1.564-.181V9.189c.503-.116 1.026-.182 1.564-.182zm1.683.212c.614.152 1.197.38 1.736.681v12.2c-.54.302-1.122.53-1.736.682zm-3.959.174v13.215C11.01 21.664 9.031 19.066 9.031 16c0-3.065 1.978-5.663 4.726-6.607zM.781 11.06v9.88C.276 19.382 0 17.724 0 16c0-1.725.276-3.384.781-4.94zm20.332.136c.535.564.977 1.217 1.302 1.936v5.735c-.325.719-.767 1.371-1.302 1.936zm2.038-9.545c.922.456 1.793.999 2.604 1.618v11.332H23.98c-.15-.853-.433-1.661-.829-2.4zm3.307 2.188c3.1 2.652 5.169 6.464 5.542 10.762h-5.542zM19.844.446c.806.197 1.59.452 2.343.765v9.58c-.653-.769-1.446-1.415-2.343-1.895zm-8.36.2v8.698c-.58.397-1.103.87-1.562 1.402v-9.55c.508-.21 1.03-.393 1.562-.55zM15.052.02v7.985c-.634.077-1.243.23-1.823.445V.236c.597-.105 1.205-.178 1.823-.216zM16.536 0c.707.022 1.402.087 2.083.198V8.37c-.66-.223-1.358-.36-2.083-.404z" transform="translate(16 574)"/>
                </g>
            </g>
        </g>
    </g>
</svg>
