<?xml version="1.0" encoding="UTF-8"?>
<svg width="85px" height="24px" viewBox="0 0 85 24" version="1.1" xmlns="http://www.w3.org/2000/svg" xmlns:xlink="http://www.w3.org/1999/xlink">
    <title>AA3D5CB0-D2BF-4272-9864-C8936FFB5A86</title>
    <g id="App" stroke="none" stroke-width="1" fill="none" fill-rule="evenodd">
        <g id="Start-Screen" transform="translate(-559.000000, -634.000000)" fill="#0556A5">
            <g id="Footer" transform="translate(56.000000, 622.000000)">
                <g id="UI/Clear-Com-Logo" transform="translate(503.000000, 12.000000)">
                    <g id="Clear-Logo" transform="translate(2.656250, 4.000000)">
                        <path d="M9.43121484,12.0765667 L9.43121484,16.1939 C9.08988672,16.2495667 8.74158594,16.2822333 8.38730859,16.2932333 L8.38730859,16.2932333 L8.38730859,12.2805667 C8.75055078,12.2579 9.10017969,12.1889 9.43121484,12.0765667 L9.43121484,12.0765667 Z M6.72974219,12.0364333 C7.02026953,12.1447667 7.32540625,12.2217667 7.64316016,12.2604333 L7.64316016,12.2604333 L7.64316016,16.2834333 C7.33370703,16.2644333 7.02890234,16.2274333 6.72974219,16.1741 L6.72974219,16.1741 Z M11.2192363,10.8568 L11.2192363,15.6831333 C10.8417168,15.8408 10.4489238,15.9698 10.0448418,16.0688 L10.0448418,16.0688 L10.0448418,11.8121333 C10.4944121,11.5698 10.8918535,11.2441333 11.2192363,10.8568 L11.2192363,10.8568 Z M5.07217578,10.88 C5.30194141,11.1476667 5.56391406,11.386 5.85510547,11.586 L5.85510547,11.586 L5.85510547,15.9683333 C5.58815234,15.889 5.32684375,15.797 5.07217578,15.6913333 L5.07217578,15.6913333 Z M13.007125,8.93696667 L13.007125,14.6463 C12.6010508,14.9579667 12.1640977,15.2313 11.7022422,15.4613 L11.7022422,15.4613 L11.7022422,10.1463 C11.9007969,9.77396667 12.0422422,9.36696667 12.1176133,8.93696667 L12.1176133,8.93696667 L13.007125,8.93696667 Z M4.06705078,1.27653333 L4.06705078,15.1888667 C3.84226563,15.0562 3.62478516,14.9128667 3.41460938,14.7595333 L3.41460938,14.7595333 L3.41460938,1.70586667 C3.62478516,1.55253333 3.84226563,1.4092 4.06705078,1.27653333 L4.06705078,1.27653333 Z M61.9815684,4.20166667 C64.6215488,4.20166667 65.2202012,5.842 65.2202012,6.992 L65.2202012,11.6066667 C65.2202012,12.7566667 64.6215488,14.397 61.9815684,14.397 C59.3412559,14.397 58.7429355,12.7566667 58.7429355,11.6066667 L58.7429355,6.992 C58.7429355,5.842 59.3412559,4.20166667 61.9815684,4.20166667 Z M22.4229004,1.74883333 C24.5256543,1.74883333 26.0606348,2.8985 26.0606348,5.29016667 L26.0606348,6.4245 L23.236709,6.4245 L23.236709,5.04483333 C23.236709,4.63083333 23.236709,3.92583333 22.4229004,3.92583333 C21.6575879,3.92583333 21.6125695,4.5503316 21.6099214,4.96895648 L21.6097559,11.1008333 C21.6097559,11.4225 21.6097559,12.2198333 22.4229004,12.2198333 C23.1888379,12.2198333 23.233893,11.513545 23.2365433,11.1622766 L23.236709,9.30716667 L26.0606348,9.30716667 L26.0606348,10.8555 C26.0606348,13.0325 24.6641113,14.3971667 22.4229004,14.3971667 C20.1820215,14.3971667 18.785166,13.0325 18.785166,10.8555 L18.785166,5.29016667 C18.785166,2.8985 20.3201465,1.74883333 22.4229004,1.74883333 Z M33.105541,4.2018 C35.7455215,4.2018 36.3441738,5.84213333 36.3441738,6.9918 L36.3441738,9.69013333 L32.5068887,9.69013333 L32.5068887,11.7908 C32.5068887,12.1278 32.5068887,12.5878 33.105541,12.5878 C33.6642832,12.5878 33.7015327,12.1870889 33.704016,11.8596673 L33.7041934,10.5641333 L36.3441738,10.5641333 L36.3441738,11.6068 C36.3441738,12.7564667 35.7455215,14.3971333 33.105541,14.3971333 C30.4655605,14.3971333 29.8669082,12.7564667 29.8669082,11.6068 L29.8669082,6.9918 C29.8669082,5.84213333 30.4655605,4.2018 33.105541,4.2018 Z M40.0584746,4.20166667 C42.4374785,4.20166667 43.2509551,5.15233333 43.2509551,7.268 L43.2509551,14.1976667 L40.8257988,14.1976667 L40.8257988,13.4463333 L40.795252,13.4463333 C40.3961504,14.0443333 39.659373,14.397 38.9225957,14.397 C36.9885137,14.397 36.7736895,12.9863333 36.7736895,11.4073333 C36.7736895,9.56766667 37.8019902,8.95433333 38.7691973,8.525 C39.7513457,8.11133333 40.7029473,7.881 40.7029473,6.82333333 C40.7029473,6.302 40.5800957,6.01066667 40.0890215,6.01066667 C39.6132207,6.01066667 39.4136699,6.27133333 39.4136699,6.68533333 L39.4136699,7.48266667 L36.9579668,7.48266667 L36.9579668,6.59333333 C36.9579668,5.15233333 38.2472441,4.20166667 40.0584746,4.20166667 Z M54.6448398,1.74883333 C56.7475938,1.74883333 58.2825742,2.8985 58.2825742,5.29016667 L58.2825742,6.4245 L55.4583164,6.4245 L55.4583164,5.04483333 C55.4583164,4.63083333 55.4583164,3.92583333 54.6448398,3.92583333 C53.8313633,3.92583333 53.8313633,4.63083333 53.8313633,5.04483333 L53.8313633,11.1008333 C53.8313633,11.4225 53.8313633,12.2198333 54.6448398,12.2198333 C55.4104648,12.2198333 55.4555016,11.513545 55.4581508,11.1622766 L55.4583164,9.30716667 L58.2825742,9.30716667 L58.2825742,10.8555 C58.2825742,13.0325 56.8857188,14.3971667 54.6448398,14.3971667 C52.4039609,14.3971667 51.0071055,13.0325 51.0071055,10.8555 L51.0071055,5.29016667 C51.0071055,2.8985 52.5420859,1.74883333 54.6448398,1.74883333 Z M16.137416,8.93666667 C15.9504824,11.1023333 14.9132168,13.0226667 13.3599746,14.359 L13.3599746,14.359 L13.3599746,8.93666667 Z M29.2227344,1.94833333 L29.2227344,14.198 L26.5824219,14.198 L26.5824219,1.94833333 L29.2227344,1.94833333 Z M74.3371816,4.20166667 C75.6111855,4.20166667 76.2709316,5.091 76.2709316,6.302 L76.2709316,14.1976667 L73.6309512,14.1976667 L73.6309512,7.62066667 C73.6309512,7.268 73.6309512,6.56266667 72.9864785,6.56266667 C72.3819741,6.56266667 72.3441926,7.29040104 72.3418313,7.570882 L72.3416738,14.1976667 L69.7016934,14.1976667 L69.7016934,7.62066667 C69.7016934,7.268 69.7016934,6.56266667 69.0568887,6.56266667 C68.412416,6.56266667 68.412416,7.39066667 68.412416,7.62066667 L68.412416,14.1976667 L65.7724355,14.1976667 L65.7724355,4.401 L68.3201113,4.401 L68.3201113,5.61233333 L68.3509902,5.61233333 C68.8420645,4.723 69.3334707,4.20166667 70.4079238,4.20166667 C71.2519473,4.20166667 72.0196035,4.585 72.2344277,5.61233333 C72.7407754,4.723 73.1246035,4.20166667 74.3371816,4.20166667 Z M48.9607969,4.20166667 L48.9607969,7.39066667 L47.6406406,7.39066667 C46.7351914,7.39066667 46.4742148,7.95766667 46.4742148,8.63233333 L46.4742148,14.1976667 L43.8342344,14.1976667 L43.8342344,4.401 L46.3360898,4.401 L46.3360898,6.13333333 L46.3666367,6.13333333 C46.5592148,5.33266667 46.8696641,4.737 47.761832,4.353 C48.0477109,4.23 48.7828281,4.20166667 48.9607969,4.20166667 Z M2.27899609,2.7116 L2.27899609,13.7536 C2.09505078,13.5572667 1.92073438,13.3516 1.75704297,13.1372667 L1.75704297,13.1372667 L1.75704297,3.32793333 C1.92073438,3.1136 2.09505078,2.90826667 2.27899609,2.7116 L2.27899609,2.7116 Z M40.7029473,9.27633333 L39.966502,9.813 C39.659373,10.043 39.5056426,10.3036667 39.5056426,10.687 L39.5056426,11.99 C39.5056426,12.542 39.7207988,12.772 40.0890215,12.772 C40.5033965,12.772 40.7029473,12.3886667 40.7029473,11.9133333 L40.7029473,9.27633333 Z M61.9815684,6.01066667 C61.4228262,6.01066667 61.3855767,6.41137778 61.3830934,6.73907042 L61.382916,11.7906667 C61.382916,12.128 61.382916,12.588 61.9815684,12.588 C62.5403105,12.588 62.57756,12.1872889 62.5800433,11.8595962 L62.5802207,6.808 C62.5802207,6.47066667 62.5802207,6.01066667 61.9815684,6.01066667 Z M8.13519727,4.7096 C8.23746289,4.7096 8.33806836,4.71626667 8.4383418,4.72493333 L8.4383418,4.72493333 L8.4383418,11.7402667 C8.33806836,11.7489333 8.23746289,11.7556 8.13519727,11.7556 C7.86525586,11.7556 7.6032832,11.7222667 7.35093945,11.6642667 L7.35093945,11.6642667 L7.35093945,4.80126667 C7.6032832,4.74293333 7.86525586,4.7096 8.13519727,4.7096 Z M8.97839063,4.81636667 C9.28618359,4.8927 9.57837109,5.0077 9.8483125,5.15936667 L9.8483125,5.15936667 L9.8483125,11.3060333 C9.57837109,11.4577 9.28618359,11.5727 8.97839063,11.6490333 L8.97839063,11.6490333 Z M6.99453711,4.9037 L6.99453711,11.5617 C5.61693945,11.0860333 4.62582617,9.77703333 4.62582617,8.2327 C4.62582617,6.68836667 5.61693945,5.37936667 6.99453711,4.9037 L6.99453711,4.9037 Z M0.490941406,5.74403333 L0.490941406,10.7213667 C0.237933594,9.93703333 0.0994765625,9.10136667 0.0994765625,8.2327 C0.0994765625,7.36403333 0.237933594,6.52803333 0.490941406,5.74403333 L0.490941406,5.74403333 Z M10.6810469,5.81263333 C10.9493281,6.09696667 11.170793,6.42596667 11.3334883,6.78796667 L11.3334883,6.78796667 L11.3334883,9.67763333 C11.170793,10.0396333 10.9493281,10.3683 10.6810469,10.6526333 L10.6810469,10.6526333 Z M50.3917188,8.36466667 L50.3917188,10.6336667 L47.1587305,10.6336667 L47.1587305,8.36466667 L50.3917188,8.36466667 Z M33.105541,6.0108 C32.5467988,6.0108 32.5095493,6.41122074 32.5070661,6.73914568 L32.5068887,7.88113333 L33.7041934,7.88113333 L33.7041934,6.80813333 C33.7041934,6.47046667 33.7041934,6.0108 33.105541,6.0108 Z M11.7024746,1.00396667 C12.1643301,1.23396667 12.6009512,1.5073 13.0073574,1.81896667 L13.0073574,1.81896667 L13.0073574,7.5283 L12.1178457,7.5283 C12.0424746,7.0983 11.9010293,6.6913 11.7024746,6.31896667 L11.7024746,6.31896667 Z M13.3599746,2.10623333 C14.9132168,3.44256667 15.9504824,5.3629 16.137416,7.52823333 L16.137416,7.52823333 L13.3599746,7.52823333 Z M78.5541113,4.14506667 C79.2776074,4.14506667 79.8540137,4.7354 79.8540137,5.47373333 C79.8540137,6.2234 79.2776074,6.80806667 78.5481348,6.80806667 C77.8249707,6.80806667 77.2366113,6.2234 77.2366113,5.47373333 C77.2366113,4.7354 77.8249707,4.14506667 78.5481348,4.14506667 L78.5541113,4.14506667 Z M78.5541113,4.35173333 L78.5481348,4.35173333 C77.966084,4.35173333 77.4896191,4.85373333 77.4896191,5.47373333 C77.4896191,6.1054 77.966084,6.6014 78.5541113,6.6014 C79.1421387,6.6074 79.612959,6.1054 79.612959,5.4794 C79.612959,4.85373333 79.1421387,4.35173333 78.5541113,4.35173333 Z M78.4837207,4.72973333 C78.7071777,4.72973333 78.8539355,4.77706667 78.9422559,4.84173333 C79.0305762,4.90673333 79.0773926,5.0074 79.0773926,5.14873333 C79.0773926,5.34373333 78.9479004,5.46173333 78.7895215,5.50906667 L78.7895215,5.52073333 C78.9186816,5.5444 79.007002,5.66273333 79.0362207,5.88106667 C79.071416,6.1114 79.1069434,6.19973333 79.1305176,6.24706667 L78.8834863,6.24706667 C78.848291,6.19973333 78.8130957,6.06406667 78.7835449,5.86906667 C78.7480176,5.6804 78.6540527,5.6094 78.465791,5.6094 L78.3011035,5.6094 L78.3011035,6.24706667 L78.0656934,6.24706667 L78.0656934,4.76506667 C78.189209,4.7474 78.3070801,4.72973333 78.4837207,4.72973333 Z M10.0449082,0.3967 C10.4489902,0.4957 10.8414512,0.624366667 11.2193027,0.782033333 L11.2193027,0.782033333 L11.2193027,5.6087 C10.8919199,5.22103333 10.4944785,4.89536667 10.0449082,4.65336667 L10.0449082,4.65336667 Z M5.85523828,0.497033333 L5.85523828,4.87936667 C5.56404688,5.07936667 5.30207422,5.3177 5.07230859,5.58536667 L5.07230859,5.58536667 L5.07230859,0.774033333 C5.32697656,0.668366667 5.58828516,0.576366667 5.85523828,0.497033333 L5.85523828,0.497033333 Z M78.4717676,4.91273333 C78.3954004,4.91273333 78.3422754,4.9184 78.3011035,4.9244 L78.3011035,5.4264 L78.4717676,5.4264 C78.6660059,5.4264 78.8306934,5.3554 78.8306934,5.1724 C78.8306934,5.04273333 78.7360645,4.91273333 78.4717676,4.91273333 Z M7.64329297,0.181866667 L7.64329297,4.20486667 C7.32553906,4.24353333 7.02040234,4.32053333 6.729875,4.42886667 L6.729875,4.42886667 L6.729875,0.290866667 C7.02903516,0.237866667 7.33350781,0.200866667 7.64329297,0.181866667 L7.64329297,0.181866667 Z M8.38730859,0.1718 C8.74158594,0.1828 9.08988672,0.2158 9.43121484,0.271466667 L9.43121484,0.271466667 L9.43121484,4.3888 C9.10017969,4.27646667 8.75055078,4.20746667 8.38730859,4.1848 L8.38730859,4.1848 Z" id="Combined-Shape"></path>
                    </g>
                </g>
            </g>
        </g>
    </g>
</svg>