<svg xmlns="http://www.w3.org/2000/svg" width="32" height="32" viewBox="0 0 32 32">
    <defs>
        <filter id="prefix__a" width="137.5%" height="103.1%" x="-18.8%" y="-1.6%" filterUnits="objectBoundingBox">
            <feOffset dx="1" in="SourceAlpha" result="shadowOffsetOuter1"/>
            <feGaussianBlur in="shadowOffsetOuter1" result="shadowBlurOuter1" stdDeviation="2"/>
            <feColorMatrix in="shadowBlurOuter1" result="shadowMatrixOuter1" values="0 0 0 0 0.105882353 0 0 0 0 0.129411765 0 0 0 0 0.176470588 0 0 0 0.12 0"/>
            <feMerge>
                <feMergeNode in="shadowMatrixOuter1"/>
                <feMergeNode in="SourceGraphic"/>
            </feMerge>
        </filter>
    </defs>
    <g fill="#0556A5" fill-rule="evenodd" filter="url(#prefix__a)" transform="translate(-12 -626)">
        <path d="M30.62 649.63v8.173c-.682.11-1.377.175-2.084.197v-7.965c.725-.045 1.423-.182 2.083-.405zm-5.39-.08c.579.216 1.188.368 1.822.445v7.986c-.618-.038-1.226-.112-1.823-.217zm8.957-2.341v9.58c-.753.313-1.537.569-2.343.766v-8.45c.897-.48 1.69-1.127 2.343-1.896zm-12.265.046c.458.531.981 1.004 1.562 1.401v8.7c-.533-.158-1.054-.341-1.562-.55zm15.832-3.857v11.333c-.81.619-1.682 1.161-2.603 1.618v-10.55c.396-.74.678-1.547.828-2.4h1.775zm-17.838-15.205v27.615c-.448-.263-.882-.548-1.301-.852v-25.911c.419-.304.853-.589 1.301-.852zM44 643.398c-.373 4.298-2.443 8.11-5.542 10.763v-10.763zM16.349 631.04v21.918c-.367-.39-.715-.798-1.042-1.223v-19.471c.327-.426.675-.833 1.042-1.224zm11.684 3.966c.204 0 .405.013.605.03v13.926c-.2.017-.4.03-.605.03-.538 0-1.06-.066-1.564-.181v-13.623c.503-.116 1.026-.182 1.564-.182zm1.683.212c.614.152 1.197.38 1.736.681v12.2c-.54.302-1.122.53-1.736.682zm-3.959.174v13.215c-2.748-.944-4.726-3.542-4.726-6.608 0-3.065 1.978-5.663 4.726-6.607zm-12.976 1.668v9.88c-.505-1.558-.781-3.216-.781-4.94 0-1.725.276-3.384.781-4.94zm20.332.136c.535.564.977 1.217 1.302 1.936v5.735c-.325.719-.767 1.371-1.302 1.936zm2.038-9.545c.922.456 1.793.999 2.604 1.618v11.332H35.98c-.15-.853-.433-1.661-.829-2.4zm3.307 2.188c3.1 2.652 5.169 6.464 5.542 10.762h-5.542zm-6.614-3.394c.806.197 1.59.452 2.343.765v9.58c-.653-.769-1.446-1.415-2.343-1.895zm-8.36.2v8.698c-.58.397-1.103.87-1.562 1.402v-9.55c.508-.21 1.03-.393 1.562-.55zm3.568-.626v7.985c-.634.077-1.243.23-1.823.445v-8.214c.597-.105 1.205-.178 1.823-.216zm1.484-.02c.707.022 1.402.087 2.083.198v8.172c-.66-.223-1.358-.36-2.083-.404z"/>
    </g>
</svg>
