<?xml version="1.0" encoding="UTF-8"?>
<svg width="128px" height="128px" viewBox="0 0 128 128" version="1.1" xmlns="http://www.w3.org/2000/svg" xmlns:xlink="http://www.w3.org/1999/xlink">
    <!-- Generator: Sketch 64 (93537) - https://sketch.com -->
    <title>error-4-128</title>
    <desc>Created with Sketch.</desc>
    <g id="Page-1" stroke="none" stroke-width="1" fill="none" fill-rule="evenodd">
        <g id="error-4-128" transform="translate(1.000000, 1.000000)" fill-rule="nonzero">
            <g id="Group" transform="translate(63.000000, 63.000000) scale(-1, 1) rotate(-180.000000) translate(-63.000000, -63.000000) translate(0.000000, -0.000000)">
                <polygon id="Shape" stroke="#000000" stroke-width="2" fill="#FF0000" points="18.2 107.7 0 89.5 0 63 0 36.5 18.3 18.2 36.5 0 63 0 89.5 0 107.8 18.3 126 36.5 126 63 126 89.5 107.7 107.8 89.5 126 63 126 36.5 126"></polygon>
                <polygon id="Path" fill="#000000" points="55 74.5 55 49 63 49 71 49 71 74.5 71 100 63 100 55 100"></polygon>
                <path d="M56.9,37.1 C55.3,35.5 54,33.2 54,32 C54,29.1 56.6,24.4 58.5,23.6 C60.6,22.8 65.4,22.8 67.5,23.6 C69.4,24.4 72,29.1 72,32 C72,35.3 66.7,40 63,40 C60.8,40 58.9,39.1 56.9,37.1 Z" id="Path" fill="#000000"></path>
            </g>
        </g>
    </g>
</svg>