<?xml version="1.0" encoding="UTF-8"?>
<svg width="126px" height="126px" viewBox="0 0 126 126" version="1.1" xmlns="http://www.w3.org/2000/svg" xmlns:xlink="http://www.w3.org/1999/xlink">
    <!-- Generator: Sketch 64 (93537) - https://sketch.com -->
    <title>info-2-128</title>
    <desc>Created with Sketch.</desc>
    <g id="Page-1" stroke="none" stroke-width="1" fill="none" fill-rule="evenodd">
        <g id="info-2-128" fill-rule="nonzero">
            <g id="Group" transform="translate(63.100000, 63.000000) scale(-1, 1) rotate(-180.000000) translate(-63.100000, -63.000000) translate(0.100000, -0.000000)">
                <path d="M46.4,124.1 C37.5,121.4 35.2,120.4 27.7,115.4 C-3.7,94.5 -9.4,49.2 15.9,20.7 C22.4,13.5 32.7,6.6 41.9,3.3 C51.7,-0.2 68.2,-1 78,1.4 C90,4.4 98.5,9.4 107.9,18.9 C117,28.1 121.6,35.8 124.4,46.6 C126.4,54.2 126.4,71.8 124.4,79.3 C118.9,100.6 100.2,119 78.4,124.5 C70.2,126.6 54.1,126.4 46.4,124.1 Z" id="Shape" fill="#5F9DEF"></path>
                <path d="M59.2,98 C58,97.5 56.3,95.7 55.4,93.9 C50.3,84.2 62.2,75.2 70,82.9 C77.6,90.5 69.3,102.1 59.2,98 Z" id="Path" fill="#FFFFFF"></path>
                <polygon id="Path" fill="#FFFFFF" points="54.9 50 54.9 29 63.4 29 71.9 29 71.9 50 71.9 71 63.4 71 54.9 71"></polygon>
            </g>
        </g>
    </g>
</svg>