<?xml version="1.0" encoding="UTF-8"?>
<svg width="276px" height="64px" viewBox="0 0 276 64" version="1.1" xmlns="http://www.w3.org/2000/svg" xmlns:xlink="http://www.w3.org/1999/xlink">
    <title>23023DFA-0700-4241-9560-BCC1B3D23996</title>
    <defs>
        <rect id="path-1" x="0" y="0" width="276" height="64"></rect>
    </defs>
    <g id="Keys" stroke="none" stroke-width="1" fill="none" fill-rule="evenodd">
        <g id="Reply-Key:-New-calling" transform="translate(-56.000000, -606.000000)">
            <g id="Footer" transform="translate(56.000000, 600.000000)">
                <g id="Pattern/Footer" transform="translate(0.000000, 6.000000)">
                    <g id="Graph" transform="translate(138.000000, 32.000000) scale(-1, 1) translate(-138.000000, -32.000000) ">
                        <mask id="mask-2" fill="white">
                            <use xlink:href="#path-1"></use>
                        </mask>
                        <g id="Rectangle"></g>
                        <g id="Pattern/point" opacity="0.5" mask="url(#mask-2)">
                            <g transform="translate(0.000000, -77.000000)" id="Group-31">
                                <path d="M176.888037,79.0281135 C176.888037,122.499625 141.639761,157.73996 98.1584535,157.73996 C54.6771465,157.73996 19.4288704,122.499625 19.4288704,79.0281135 C19.4288704,35.5546415 54.6771465,0.31626696 98.1584535,0.31626696 C141.639761,0.31626696 176.888037,35.5546415 176.888037,79.0281135" id="Fill-1" fill="#2E3542"></path>
                                <path d="M98.0417633,40.9401992 C117.647935,40.9401992 133.793015,55.7621732 135.897606,74.8216765 L304,74.8217433 L304,83.2921294 L135.897407,83.2917201 C133.792001,102.349239 117.647319,117.173674 98.0417633,117.173674 C77.007417,117.173674 59.9535963,100.106624 59.9535963,79.05596 C59.9535963,58.0033437 77.007417,40.9401992 98.0417633,40.9401992 Z" id="Combined-Shape" fill="#1B212D"></path>
                                <path d="M23.6004963,86.1155914 C24.603126,86.1155914 25.6175745,86.1806464 26.6182343,86.3068136 C38.4178769,87.8137691 47.0925182,97.8382448 47.255213,109.416719 C47.4779824,109.411582 47.7019642,109.409153 47.9264329,109.409153 C49.2425543,109.409153 50.576224,109.493062 51.8903955,109.66088 C68.8595872,111.826906 80.9074597,127.408635 78.7470709,144.393401 C76.7719139,159.863901 63.5541557,171.525317 48.0024755,171.525317 C46.6863541,171.525317 45.3507347,171.439457 44.0365631,171.271639 C35.8142166,170.221799 28.494632,166.032197 23.4212278,159.469723 C18.3497734,152.909201 16.1347899,144.764163 17.1818376,136.537166 C17.3483042,135.231224 17.594973,133.95239 17.9164788,132.705398 C12.7725845,131.432809 8.23581554,128.486814 4.94449332,124.229916 C1.08367968,119.234483 -0.604441383,113.034548 0.193328781,106.769557 C1.69431857,94.9946085 11.7560717,86.1155914 23.6004963,86.1155914 Z M47.9264329,110.066766 C47.7022537,110.066766 47.47857,110.069242 47.2554096,110.074169 C47.2430399,110.959554 47.1809888,111.852531 47.066758,112.750671 C46.6901359,115.696965 45.7776037,118.462381 44.4353677,120.952927 C45.4647001,120.788319 46.5182396,120.703001 47.5888559,120.703001 C48.4410299,120.703001 49.3029098,120.759338 50.1531426,120.864241 C61.1459928,122.268781 68.9494994,132.358933 67.5499152,143.362132 C66.2706837,153.380406 57.7101205,160.937335 47.6373852,160.937335 C46.7832701,160.937335 45.9194491,160.88294 45.0672751,160.770266 C34.0744248,159.369612 26.2709182,149.275575 27.6705024,138.274318 C27.9198169,136.325154 28.4448654,134.469197 29.2031341,132.743984 C27.4196941,133.178897 25.5616737,133.40858 23.6576206,133.40858 C22.6569608,133.40858 21.6405425,133.343525 20.6398826,133.215387 C19.9367158,133.125262 19.2421979,133.005016 18.5577863,132.855476 C18.2412725,134.078873 17.9985559,135.335632 17.8350237,136.619124 C15.7175307,153.244838 27.5080284,168.496784 44.1184551,170.619879 C45.4072791,170.783795 46.7136515,170.867704 48.0024755,170.867704 C63.2246379,170.867704 76.1616235,159.452161 78.0958345,144.311444 C80.2094279,127.683778 68.4169804,112.435735 51.8085035,110.314591 C50.5196795,110.150675 49.2133072,110.066766 47.9264329,110.066766 Z M47.5888559,122.014293 C46.2073394,122.014293 44.8562692,122.166223 43.5526572,122.455069 C40.6083135,127.06886 36.1232467,130.570469 30.8772688,132.270176 C29.9107558,134.157858 29.251214,136.235728 28.9691456,138.441386 C27.6607965,148.725804 34.9576576,158.159338 45.2322746,159.472573 C46.0300958,159.575533 46.839564,159.6241 47.6373852,159.6241 C57.0540047,159.6241 65.0555108,152.56449 66.2493308,143.195064 C67.5596211,132.910647 60.2647012,123.477113 49.9862019,122.167763 C49.192263,122.06286 48.384736,122.014293 47.5888559,122.014293 Z M47.9501714,125.64406 C48.5758466,125.64406 49.2112979,125.685154 49.8350179,125.763428 C53.7591743,126.264383 57.253179,128.266245 59.675715,131.397213 C62.0962958,134.528181 63.1540779,138.416451 62.6535377,142.339945 C61.7130698,149.723159 55.405482,155.290411 47.9834104,155.290411 C47.3538248,155.290411 46.7183735,155.249317 46.0907431,155.169086 C37.9902049,154.135866 32.2398592,146.699818 33.2702679,138.588654 C34.2166016,131.209355 40.5280998,125.64406 47.9501714,125.64406 Z M47.9501714,127.293688 C41.3532089,127.293688 35.7475505,132.240617 34.9067995,138.799995 C33.9897944,146.005134 39.1007784,152.613433 46.297998,153.533155 C46.8571951,153.603602 47.4242133,153.640782 47.9834104,153.640782 C54.5784177,153.640782 60.1821209,148.693853 61.0189614,142.132519 C61.4627997,138.643446 60.5223317,135.189598 58.3715734,132.40695 C56.2188598,129.620389 53.1139468,127.845521 49.627763,127.401315 C49.070521,127.328912 48.5074134,127.293688 47.9501714,127.293688 Z M47.6057308,131.290984 C48.0048826,131.290984 48.4139636,131.316819 48.8131154,131.368489 C51.3371052,131.690434 53.5830787,132.976228 55.1399693,134.993355 C56.6948741,137.00452 57.3760138,139.502577 57.0543093,142.028457 C56.4506171,146.770195 52.3975383,150.349352 47.6236033,150.349352 C47.2204798,150.349352 46.8113989,150.32153 46.4082754,150.271847 C41.2014295,149.608083 37.5018285,144.828586 38.1650956,139.615854 C38.7767312,134.870141 42.8357675,131.290984 47.6057308,131.290984 Z M47.6057308,133.302148 C43.8425832,133.302148 40.6414255,136.126126 40.156883,139.874205 C39.6346097,143.981989 42.5537796,147.753916 46.6624616,148.276581 C46.9821803,148.320302 47.3058705,148.338188 47.6236033,148.338188 C51.3887367,148.338188 54.5859228,145.516198 55.0605362,141.772093 C55.3147224,139.780801 54.7785483,137.81137 53.5513055,136.221517 C52.3220768,134.631663 50.5487307,133.616144 48.560915,133.363755 C48.2431822,133.322021 47.9234636,133.302148 47.6057308,133.302148 Z M47.6107049,136.937908 C47.7744954,136.937908 47.9402129,136.949473 48.1020766,136.970677 C49.1310667,137.101757 50.0444399,137.628002 50.6784057,138.447247 C51.3142985,139.266493 51.589852,140.286213 51.4568926,141.315571 C51.2140972,143.245135 49.562703,144.702428 47.6184127,144.702428 C47.4507682,144.702428 47.2831238,144.69279 47.1174063,144.671586 C46.0961239,144.542434 45.1808238,144.018117 44.544931,143.196944 C43.9090382,142.377698 43.6315578,141.357979 43.7625902,140.330548 C44.0130934,138.397129 45.6683415,136.937908 47.6107049,136.937908 Z M47.6107049,139.214447 C46.8071677,139.214447 46.1231012,139.817797 46.0171191,140.619694 C45.9650915,141.043774 46.0787814,141.463999 46.3427733,141.80519 C46.6048382,142.144454 46.9825199,142.36035 47.4045215,142.412396 C47.4777455,142.422034 47.5490426,142.427817 47.6184127,142.427817 C48.4200229,142.427817 49.1002355,141.824467 49.2004368,141.024497 C49.2563183,140.59849 49.1426284,140.178265 48.8805635,139.839001 C48.6165716,139.497809 48.2388899,139.281914 47.8130344,139.22794 C47.7475182,139.218302 47.680075,139.214447 47.6107049,139.214447 Z M33.6181814,126.39348 L33.4362252,126.502759 C30.5494876,128.20369 27.19856,129.173387 23.6534738,129.173387 C22.8305416,129.173387 21.9958531,129.122405 21.1748802,129.01652 C20.7490469,128.962051 20.3281738,128.894079 19.9126364,128.813091 C19.434085,129.962696 19.0239111,131.149992 18.6872029,132.369474 C19.3474921,132.515047 20.0198498,132.631409 20.7029163,132.718603 C21.6819083,132.842799 22.6766588,132.905883 23.6576206,132.905883 C25.6591994,132.905883 27.6088468,132.646667 29.4723943,132.158391 C30.5099544,129.988969 31.9216483,128.041352 33.6181814,126.39348 Z M23.6004963,86.6163175 C12.0082064,86.6163175 2.15919205,95.3060838 0.689719106,106.83067 C-0.806251605,118.582789 6.82408893,129.435999 18.0460334,132.221508 C18.3802149,131.005027 18.7860808,129.820906 19.2582597,128.67251 C9.67630896,126.461613 3.12001362,117.272701 4.38902119,107.308099 C5.62146023,97.6392138 13.8840921,90.3507844 23.6064491,90.3507844 C24.427422,90.3507844 25.2621105,90.403727 26.0830834,90.5076513 C35.8782948,91.760817 43.0496718,100.158857 43.0254609,109.801287 C44.2479627,109.603293 45.4923135,109.478988 46.7537876,109.431294 C46.5997196,98.096358 38.1079361,88.2787179 26.5552007,86.8055683 C25.5762086,86.6794011 24.5814582,86.6163175 23.6004963,86.6163175 Z M42.8414803,122.628497 L42.5951889,122.694057 C37.7612345,124.037902 33.6651098,127.284167 31.2249993,131.622497 C35.9772979,129.961846 40.0568136,126.780398 42.8414803,122.628497 Z M42.259259,110.604393 L42.1240573,110.628716 C40.9553365,110.857773 39.8088843,111.154665 38.6892862,111.515345 C38.684261,111.570078 38.6776538,111.624236 38.6707503,111.678423 C37.7069444,119.236823 31.2498329,124.938194 23.650145,124.938194 C23.0749946,124.938194 22.4952107,124.904192 21.920432,124.837565 C21.2896093,125.885859 20.7195586,126.977992 20.2158873,128.107651 C20.5632899,128.173077 20.9143212,128.228092 21.2689296,128.273363 C22.0605121,128.377287 22.8618914,128.426308 23.6534738,128.426308 C32.9976739,128.426308 40.9409297,121.416318 42.1283034,112.121953 C42.192895,111.613716 42.2363172,111.107566 42.259259,110.604393 Z M23.6064491,91.0978631 C14.2583304,91.0978631 6.31507458,98.1058929 5.12966023,107.400258 C3.90457916,117.02891 10.2735756,125.902465 19.5564509,127.973861 C20.046558,126.858623 20.600639,125.778913 21.2130648,124.738915 C13.1833284,123.447304 7.55098466,115.974118 8.58679026,107.841859 C9.5525394,100.283459 16.011594,94.5859774 23.613225,94.5859774 C24.2544669,94.5859774 24.9054246,94.6287572 25.5466665,94.7104276 C33.5481912,95.7310254 39.3104309,102.85338 38.756749,110.805197 C39.9045259,110.445739 41.0798541,110.152925 42.2775875,109.929744 C42.3659092,100.607136 35.450294,92.4570986 25.989034,91.2508084 C25.1974515,91.1488449 24.3960722,91.0978631 23.6064491,91.0978631 Z M37.6473544,111.87276 L37.4805706,111.933263 C36.1960634,112.40813 34.9504809,112.968054 33.7511347,113.606583 C32.2828799,117.273433 28.9615397,119.955882 25.0183815,120.569732 C24.1084618,121.618131 23.2689424,122.730493 22.5069822,123.899659 C22.8881164,123.932993 23.270673,123.948427 23.650145,123.948427 C30.6458091,123.948427 36.6083412,118.77911 37.6473544,111.87276 Z M23.613225,95.5738002 C16.5090422,95.5738002 10.4697096,100.901821 9.5661415,107.964365 C8.58165996,115.704223 14.0545572,122.803881 21.7730389,123.823675 C22.4736762,122.723671 23.2396178,121.672769 24.0660221,120.675181 C23.8098721,120.694054 23.5518633,120.703001 23.2920608,120.703001 C22.8136775,120.703001 22.3273871,120.675303 21.8490038,120.611993 C15.6774642,119.82458 11.2968967,114.160344 12.0816825,107.981718 C12.803211,102.357052 17.6107652,98.115305 23.2663625,98.115305 C23.742769,98.115305 24.2270827,98.1469598 24.7034892,98.2063126 C27.6923962,98.5901273 30.3551329,100.113516 32.1994784,102.499498 C34.0458006,104.887459 34.8503543,107.847185 34.4688337,110.838566 C34.3873494,111.479041 34.2528338,112.101559 34.0700707,112.701905 C35.2520854,112.105524 36.4770071,111.583748 37.7372514,111.141672 C38.4835865,103.545498 33.0373616,96.6606948 25.4223044,95.6904722 C24.8218688,95.6146354 24.2136606,95.5738002 23.613225,95.5738002 Z M46.7544529,110.090143 L46.5626684,110.097386 C45.3611453,110.151419 44.175793,110.276476 43.0110255,110.468662 C42.9909118,111.048465 42.9434518,111.631899 42.8689424,112.218034 C42.2972507,116.694205 40.2184725,120.661048 37.1855829,123.630229 C39.1946316,122.403342 41.4295734,121.522769 43.8022691,121.064499 C45.2216981,118.536736 46.1839989,115.708709 46.5703677,112.685616 C46.6811324,111.814536 46.7417421,110.948405 46.7544529,110.090143 Z M23.2663625,99.3735842 C18.2413613,99.3735842 13.9675405,103.142487 13.3270604,108.141971 C12.6292534,113.630126 16.5235305,118.6672 22.0071471,119.363606 C22.4341338,119.420981 22.8650741,119.4467 23.2920608,119.4467 C23.9906414,119.4467 24.6746276,119.373859 25.3362863,119.235003 C27.3975894,117.036118 29.7703002,115.142027 32.3775689,113.619792 C32.8005571,112.709201 33.0908502,111.721407 33.2234558,110.680292 C33.5614869,108.021287 32.8458888,105.389979 31.2071296,103.269106 C29.5663935,101.146254 27.2001754,99.7930107 24.5433691,99.4546997 C24.120336,99.4012822 23.6913725,99.3735842 23.2663625,99.3735842 Z M31.749827,114.773737 L31.6745297,114.819805 C29.8418577,115.989864 28.1393589,117.352489 26.597241,118.881022 C28.729725,118.129807 30.5467775,116.672243 31.749827,114.773737 Z M23.2726714,102.350498 C23.5693416,102.350498 23.8699153,102.371983 24.1665855,102.411045 C26.0363882,102.647376 27.6993025,103.600509 28.852803,105.092709 C30.0063034,106.582957 30.5098619,108.434535 30.2717451,110.303692 C29.8247881,113.817394 26.8210027,116.467808 23.2863339,116.467808 C22.9877119,116.467808 22.6851865,116.446323 22.3846127,116.411167 C18.5279006,115.918975 15.789557,112.377929 16.2794531,108.520473 C16.7322655,105.002865 19.7380026,102.350498 23.2726714,102.350498 Z M23.2726714,103.840745 C20.4835816,103.840745 18.1141238,105.93256 17.7549968,108.706022 C17.3685449,111.75097 19.5311142,114.543963 22.5739351,114.932638 C22.8101002,114.961936 23.0501688,114.977561 23.2863339,114.977561 C26.0754237,114.977561 28.4429297,112.887699 28.7942496,110.114237 C28.983572,108.639615 28.5854095,107.180618 27.6758812,106.002873 C26.7663529,104.825129 25.4528068,104.075122 23.9792148,103.885668 C23.7450016,103.85637 23.5068847,103.840745 23.2726714,103.840745 Z M23.2766404,106.585691 C23.3956377,106.585691 23.5164944,106.591271 23.6336324,106.608011 C24.3829436,106.70659 25.0467255,107.086028 25.5078401,107.681224 C25.9689547,108.28014 26.171622,109.022275 26.0730773,109.768131 C25.8964407,111.170562 24.6953115,112.232615 23.2803591,112.232615 C23.1613618,112.232615 23.0386458,112.225175 22.9177891,112.208435 C22.1740559,112.113576 21.5084147,111.735998 21.0473001,111.138942 C20.5843261,110.540026 20.3816588,109.799751 20.4783441,109.052035 C20.6605588,107.645884 21.8635473,106.585691 23.2766404,106.585691 Z M23.2766404,108.24108 C22.6928098,108.24108 22.1945086,108.680038 22.1182759,109.264074 C22.0792299,109.570972 22.1628999,109.87787 22.3544112,110.125248 C22.5459225,110.370767 22.8192445,110.527006 23.1278938,110.567926 C23.1799551,110.573506 23.2301571,110.577226 23.2803591,110.577226 C23.8641897,110.577226 24.3587722,110.140128 24.4331456,109.556092 C24.4740509,109.245474 24.3903809,108.942296 24.1988696,108.693058 C24.0092176,108.445679 23.7340363,108.28758 23.4235277,108.25038 C23.3770444,108.2448 23.3268424,108.24108 23.2766404,108.24108 Z" id="Combined-Shape" fill="#FFFFFF" opacity="0.0843331473"></path>
                            </g>
                        </g>
                    </g>
                </g>
            </g>
        </g>
    </g>
</svg>