<svg xmlns="http://www.w3.org/2000/svg" xmlns:xlink="http://www.w3.org/1999/xlink" width="56" height="425" viewBox="0 0 56 425">
    <defs>
        <filter id="prefix__a" width="137.5%" height="103.1%" x="-18.8%" y="-1.6%" filterUnits="objectBoundingBox">
            <feOffset dx="1" in="SourceAlpha" result="shadowOffsetOuter1"/>
            <feGaussianBlur in="shadowOffsetOuter1" result="shadowBlurOuter1" stdDeviation="2"/>
            <feColorMatrix in="shadowBlurOuter1" result="shadowMatrixOuter1" values="0 0 0 0 0.105882353 0 0 0 0 0.129411765 0 0 0 0 0.176470588 0 0 0 0.12 0"/>
            <feMerge>
                <feMergeNode in="shadowMatrixOuter1"/>
                <feMergeNode in="SourceGraphic"/>
            </feMerge>
        </filter>
        <path id="prefix__b" d="M0 0H56V425H0z"/>
    </defs>
    <g fill="none" fill-rule="evenodd" filter="url(#prefix__a)" transform="translate(0 -245)">
        <g transform="translate(0 245)">
            <mask id="prefix__c" fill="#fff">
                <use xlink:href="#prefix__b"/>
            </mask>
            <g mask="url(#prefix__c)" opacity=".1">
                <g stroke="#231F20">
                    <path stroke-width=".876" d="M214.28 127.245c-6.234 48.757-50.79 83.259-99.544 77.028-48.747-6.227-83.22-50.784-77.014-99.534 6.222-48.737 50.784-83.232 99.535-77.015 48.742 6.218 83.222 50.782 77.022 99.521z" transform="translate(-153)"/>
                    <path stroke-width="1.314" d="M135.231 43.593c39.981 5.098 68.262 41.656 63.178 81.632-5.115 39.99-41.658 68.29-81.645 63.179-39.986-5.102-68.262-41.656-63.171-81.637C58.699 66.784 95.248 38.5 135.23 43.593z" transform="translate(-153)"/>
                    <path stroke-width="1.752" d="M132.645 59.458c30.947 3.949 52.838 32.247 48.896 63.186-3.953 30.95-32.238 52.85-63.187 48.894-30.947-3.949-52.834-32.24-48.896-63.186 3.956-30.938 32.245-52.83 63.187-48.894z" transform="translate(-153)"/>
                    <path stroke-width="2.191" d="M130.622 76.327c22.182 2.83 37.877 23.123 35.048 45.295-2.828 22.187-23.108 37.879-45.289 35.048-22.18-2.83-37.875-23.116-35.053-45.29 2.844-22.185 23.118-37.87 45.294-35.053z" transform="translate(-153)"/>
                    <path stroke-width=".417" d="M171.66 210.305c-2.943 23.013-23.967 39.295-46.974 36.351-23.004-2.938-39.272-23.965-36.346-46.972 2.936-23 23.969-39.276 46.974-36.342 23.003 2.933 39.274 23.963 36.345 46.963z" transform="translate(-153)"/>
                    <path stroke-width=".625" d="M134.863 170.28c18.897 2.41 32.263 19.687 29.857 38.58-2.416 18.9-19.685 32.27-38.584 29.86-18.897-2.413-32.258-19.688-29.857-38.584 2.419-18.895 19.69-32.262 38.584-29.856z" transform="translate(-153)"/>
                    <path stroke-width=".833" d="M133.415 178.219c14.79 1.886 25.252 15.41 23.365 30.193-1.889 14.79-15.404 25.257-30.194 23.368-14.789-1.887-25.248-15.411-23.367-30.196 1.893-14.784 15.41-25.246 30.196-23.365z" transform="translate(-153)"/>
                    <path stroke-width=".363" d="M247.7 41.674c-2.592 20.272-21.115 34.614-41.381 32.024-20.267-2.588-34.6-21.115-32.019-41.38 2.584-20.263 21.117-34.6 41.382-32.017 20.262 2.585 34.597 21.113 32.018 41.373z" transform="translate(-153)"/>
                    <path stroke-width=".546" d="M215.36 6.248c16.705 2.133 28.517 17.403 26.393 34.103-2.135 16.71-17.402 28.533-34.11 26.4-16.707-2.137-28.522-17.41-26.396-34.112 2.133-16.704 17.41-28.521 34.113-26.39z" transform="translate(-153)"/>
                    <path stroke-width=".727" d="M213.472 13.191c12.871 1.643 21.98 13.41 20.336 26.277-1.643 12.873-13.408 21.984-26.281 20.34-12.871-1.643-21.975-13.412-20.336-26.283 1.643-12.867 13.413-21.975 26.281-20.334z" transform="translate(-153)"/>
                    <path stroke-width=".909" d="M213.15 19.138c9.311 1.189 15.902 9.704 14.711 19.01-1.186 9.316-9.697 15.902-19.008 14.713-9.311-1.188-15.9-9.704-14.715-19.011 1.192-9.312 9.705-15.898 19.012-14.712z" transform="translate(-153)"/>
                    <path stroke-width="1.09" d="M209.738 46.919c-5.477-.693-9.354-5.71-8.657-11.184.705-5.473 5.713-9.344 11.184-8.656 5.48.703 9.354 5.714 8.653 11.188-.696 5.476-5.704 9.35-11.18 8.652z" transform="translate(-153)"/>
                    <path stroke-width="1.273" d="M213.976 36.383c-.208 1.637-1.71 2.807-3.355 2.591-1.64-.203-2.808-1.711-2.596-3.35.211-1.645 1.71-2.807 3.359-2.6 1.637.21 2.801 1.714 2.592 3.359z" transform="translate(-153)"/>
                    <path stroke-width=".208" d="M197.826 241.216c-1.508 11.778-12.269 20.114-24.046 18.608-11.777-1.5-20.1-12.267-18.607-24.045 1.506-11.772 12.269-20.107 24.046-18.604 11.777 1.503 20.105 12.268 18.607 24.041z" transform="translate(-153)"/>
                    <path stroke-width=".312" d="M178.713 222.142c9.59 1.225 16.367 9.987 15.144 19.571-1.22 9.582-9.985 16.369-19.571 15.144-9.585-1.225-16.363-9.985-15.144-19.573 1.222-9.58 9.985-16.362 19.571-15.142z" transform="translate(-153)"/>
                    <path stroke-width=".416" d="M178.21 225.11c7.394.943 12.62 7.703 11.68 15.093-.941 7.398-7.704 12.63-15.096 11.687-7.395-.948-12.628-7.709-11.684-15.098.942-7.392 7.703-12.622 15.1-11.683z" transform="translate(-153)"/>
                    <path stroke-width=".52" d="M177.702 229.077c5.202.664 8.882 5.423 8.221 10.623-.665 5.203-5.424 8.888-10.624 8.222-5.205-.665-8.885-5.424-8.222-10.625.663-5.205 5.422-8.883 10.625-8.22z" transform="translate(-153)"/>
                    <path stroke-width=".624" d="M175.244 244.951c-3.287-.415-5.617-3.422-5.195-6.71.422-3.287 3.425-5.608 6.71-5.193 3.282.418 5.612 3.426 5.192 6.71-.422 3.29-3.427 5.613-6.707 5.193z" transform="translate(-153)"/>
                    <path stroke-width=".728" d="M177.983 239.253c-.136 1.094-1.14 1.874-2.236 1.73-1.094-.137-1.872-1.142-1.73-2.234.139-1.094 1.14-1.874 2.236-1.732 1.092.139 1.872 1.144 1.73 2.236z" transform="translate(-153)"/>
                </g>
            </g>
        </g>
    </g>
</svg>
