<svg width="64" height="424" xmlns="http://www.w3.org/2000/svg" xmlns:xlink="http://www.w3.org/1999/xlink">
    <defs>
        <filter id="b">
            <feColorMatrix in="SourceGraphic" values="0 0 0 0 0.462745 0 0 0 0 0.549020 0 0 0 0 0.600000 0 0 0 1.000000 0"/>
        </filter>
        <path id="a" d="M0 0h64v424H0z"/>
    </defs>
    <g fill="none" fill-rule="evenodd">
        <mask id="c" fill="#fff">
            <use xlink:href="#a"/>
        </mask>
        <g filter="url(#b)" opacity=".1">
            <g stroke="#231F20" mask="url(#c)">
                <path d="M61.28 127.715c-6.234 48.936-50.79 83.565-99.544 77.312-48.747-6.25-83.22-50.972-77.014-99.901 6.222-48.917 50.784-83.54 99.535-77.3 48.742 6.241 83.222 50.97 77.022 99.889z" stroke-width=".876"/>
                <path d="M-17.769 43.754c39.981 5.116 68.262 41.81 63.178 81.933-5.115 40.137-41.658 68.541-81.645 63.412-39.986-5.121-68.262-41.81-63.171-81.938 5.106-40.13 41.655-68.52 81.638-63.407z" stroke-width="1.314"/>
                <path d="M-20.355 59.677c30.947 3.964 52.838 32.367 48.896 63.42-3.953 31.063-32.238 53.044-63.187 49.074-30.947-3.963-52.834-32.36-48.896-63.419 3.956-31.053 32.245-53.026 63.187-49.075z" stroke-width="1.752"/>
                <path d="M-22.378 76.609c22.182 2.84 37.877 23.208 35.048 45.461-2.828 22.27-23.108 38.02-45.289 35.178-22.18-2.84-37.875-23.201-35.053-45.457 2.844-22.267 23.118-38.01 45.294-35.182z" stroke-width="2.191"/>
                <path d="M18.66 211.08c-2.943 23.099-23.967 39.441-46.974 36.486-23.004-2.949-39.272-24.053-36.346-47.145 2.936-23.085 23.969-39.42 46.974-36.476 23.003 2.944 39.274 24.05 36.345 47.136z" stroke-width=".417"/>
                <path d="M-18.137 170.908c18.897 2.42 32.263 19.76 29.857 38.723-2.416 18.97-19.685 32.388-38.584 29.969-18.897-2.421-32.258-19.76-29.857-38.725 2.419-18.965 19.69-32.381 38.584-29.967z" stroke-width=".625"/>
                <path d="M-19.585 178.876c14.79 1.894 25.252 15.468 23.365 30.305-1.889 14.846-15.404 25.35-30.194 23.454-14.789-1.894-25.248-15.468-23.367-30.307 1.893-14.84 15.41-25.339 30.196-23.452z" stroke-width=".833"/>
                <path d="M94.7 41.828C92.108 62.174 73.585 76.569 53.32 73.97c-20.267-2.597-34.6-21.193-32.019-41.533C23.884 12.1 42.417-2.29 62.682.302 82.944 2.897 97.279 21.492 94.7 41.828z" stroke-width=".363"/>
                <path d="M62.36 6.271c16.705 2.141 28.517 17.468 26.393 34.23-2.135 16.77-17.402 28.637-34.11 26.497C37.935 64.853 26.12 49.524 28.246 32.76 30.38 15.994 45.657 4.133 62.36 6.27z" stroke-width=".546"/>
                <path d="M60.472 13.24c12.871 1.649 21.98 13.46 20.336 26.374-1.643 12.92-13.408 22.064-26.281 20.415-12.871-1.65-21.975-13.462-20.336-26.38 1.643-12.915 13.413-22.056 26.281-20.41z" stroke-width=".727"/>
                <path d="M60.15 19.209c9.311 1.193 15.902 9.74 14.711 19.08-1.186 9.35-9.697 15.96-19.008 14.767-9.311-1.192-15.9-9.74-14.715-19.081 1.192-9.346 9.705-15.957 19.012-14.766z" stroke-width=".909"/>
                <path d="M56.738 47.092c-5.477-.695-9.354-5.73-8.657-11.225.705-5.494 5.713-9.378 11.184-8.688 5.48.706 9.354 5.735 8.653 11.229-.696 5.496-5.704 9.385-11.18 8.684z" stroke-width="1.09"/>
                <path d="M60.976 36.517a2.997 2.997 0 0 1-3.355 2.601 3.005 3.005 0 0 1-2.596-3.363 3.006 3.006 0 0 1 3.359-2.61 3.012 3.012 0 0 1 2.592 3.372z" stroke-width="1.273"/>
                <path d="M44.826 242.106c-1.508 11.822-12.269 20.188-24.046 18.677C9.003 259.276.68 248.47 2.173 236.65c1.506-11.815 12.269-20.181 24.046-18.672 11.777 1.508 20.105 12.312 18.607 24.13z" stroke-width=".208"/>
                <path d="M25.713 222.962c9.59 1.229 16.367 10.024 15.144 19.643-1.22 9.618-9.985 16.43-19.571 15.2-9.585-1.23-16.363-10.022-15.144-19.646 1.222-9.615 9.985-16.422 19.571-15.197z" stroke-width=".312"/>
                <path d="M25.21 225.94c7.394.947 12.62 7.732 11.68 15.15-.941 7.425-7.704 12.677-15.096 11.73-7.395-.952-12.628-7.737-11.684-15.154.942-7.42 7.703-12.67 15.1-11.726z" stroke-width=".416"/>
                <path d="M24.702 229.923c5.202.665 8.882 5.442 8.221 10.662-.665 5.222-5.424 8.92-10.624 8.252-5.205-.668-8.885-5.444-8.222-10.664.663-5.224 5.422-8.916 10.625-8.25z" stroke-width=".52"/>
                <path d="M22.244 245.855c-3.287-.417-5.617-3.434-5.195-6.734.422-3.3 3.425-5.63 6.71-5.213 3.282.419 5.612 3.439 5.192 6.734-.422 3.302-3.427 5.634-6.707 5.213z" stroke-width=".624"/>
                <path d="M24.983 240.136a1.997 1.997 0 0 1-2.236 1.736 2.003 2.003 0 0 1-1.73-2.242 2.001 2.001 0 0 1 2.236-1.739 2.008 2.008 0 0 1 1.73 2.245z" stroke-width=".728"/>
            </g>
        </g>
    </g>
</svg>
